<svg width="20" height="20" viewBox="0 0 20 20" fill="none" xmlns="http://www.w3.org/2000/svg">
<g clip-path="url(#clip0)">
<path d="M12.3438 14.6875H7.65625C7.54608 14.8264 3.86017 19.4707 3.75 19.6094H16.25C16.1398 19.4705 12.4539 14.8264 12.3438 14.6875Z" fill="#EAFAFF"/>
<path d="M15.7031 14.6875H12.3438C12.4539 14.8264 16.1398 19.4707 16.25 19.6094H19.6094C19.4992 19.4705 15.8133 14.8264 15.7031 14.6875Z" fill="#96C8EF"/>
<path d="M10 17.1484C9.98245 17.121 5.12711 9.50562 5.12466 9.50165C4.50317 8.57117 4.14062 7.4527 4.14062 6.25C4.14062 3.01407 6.76407 0.390625 10 0.390625C13.2359 0.390625 15.8594 3.01407 15.8594 6.25C15.8594 7.4527 15.4968 8.57117 14.8753 9.50165C14.8729 9.50546 10.0171 17.1216 10 17.1484ZM12.9266 8.19839C13.3121 7.62268 13.5156 6.94839 13.5156 6.25C13.5156 4.31137 11.9386 2.73438 10 2.73438C8.06137 2.73438 6.48438 4.31137 6.48438 6.25C6.48438 6.94839 6.68793 7.62268 7.07382 8.19916C7.72934 9.18015 8.82263 9.76562 10 9.76562C11.1774 9.76562 12.2707 9.18015 12.9266 8.19839Z" fill="#FF523D"/>
<path d="M4.29688 14.6875C4.18671 14.8264 0.500793 19.4707 0.390625 19.6094H3.75C3.86017 19.4705 7.54608 14.8264 7.65625 14.6875H4.29688Z" fill="#96C8EF"/>
<path d="M12.3438 10.1562C12.1281 10.1562 11.9531 10.3313 11.9531 10.5469C11.9531 10.7625 12.1281 10.9375 12.3438 10.9375C12.5594 10.9375 12.7344 10.7625 12.7344 10.5469C12.7344 10.3313 12.5594 10.1562 12.3438 10.1562Z" fill="black"/>
<path d="M3.99155 14.4447L0.0853015 19.3666C-0.00792967 19.4839 -0.0256299 19.6443 0.0395252 19.7792C0.10468 19.9142 0.241399 20 0.39124 20H19.61C19.7598 20 19.8965 19.9142 19.9617 19.7792C20.027 19.6443 20.0092 19.4839 19.9159 19.3666L16.0097 14.4447C15.9357 14.3513 15.8229 14.2969 15.7037 14.2969H12.282L15.2032 9.71497C15.8885 8.68759 16.2506 7.48947 16.2506 6.25C16.2506 2.8038 13.447 0 10.0006 0C6.55426 0 3.75061 2.8038 3.75061 6.25C3.75061 7.48947 4.1127 8.68744 4.79798 9.71497L7.71927 14.2969H4.29749C4.17832 14.2969 4.06571 14.3513 3.99155 14.4447ZM2.53312 17.5391H4.89502L3.56202 19.2188H1.19996L2.53312 17.5391ZM8.21747 15.0781L9.28833 16.7578H6.51245L7.84561 15.0781H8.21747ZM11.7839 15.0781H12.1558L13.4888 16.7578H10.713L11.7839 15.0781ZM14.1089 17.5391L15.4419 19.2188H4.55933L5.89249 17.5391H14.1089ZM16.4394 19.2188L15.1062 17.5391H17.4683L18.8013 19.2188H16.4394ZM16.8481 16.7578H14.4862L13.1531 15.0781H15.5151L16.8481 16.7578ZM5.45014 9.28467C4.8494 8.38531 4.53186 7.33597 4.53186 6.25C4.53186 3.23456 6.98517 0.78125 10.0006 0.78125C13.0161 0.78125 15.4694 3.23456 15.4694 6.25C15.4694 7.33597 15.1518 8.38531 14.5512 9.28467C14.5496 9.28696 14.5482 9.28925 14.5467 9.29153C14.2902 9.69391 10.1982 16.1121 10.0006 16.4218C9.50363 15.6422 5.9607 10.0853 5.45456 9.29153C5.45319 9.28925 5.45166 9.28696 5.45014 9.28467ZM6.84815 15.0781L5.51514 16.7578H3.15308L4.48624 15.0781H6.84815Z" fill="black"/>
<path d="M10 10.1562C12.1445 10.1562 13.9062 8.41965 13.9062 6.25C13.9062 4.09607 12.1539 2.34375 10 2.34375C7.84607 2.34375 6.09375 4.09607 6.09375 6.25C6.09375 8.42026 7.85614 10.1562 10 10.1562ZM10 3.125C11.7232 3.125 13.125 4.52682 13.125 6.25C13.125 7.9892 11.7119 9.375 10 9.375C8.28766 9.375 6.875 7.9892 6.875 6.25C6.875 4.52682 8.27682 3.125 10 3.125Z" fill="black"/>
<path d="M11.6454 11.4893C11.4607 11.3779 11.2205 11.4374 11.1092 11.6222L9.66537 14.0175C9.55398 14.2023 9.61349 14.4423 9.79827 14.5537C9.98382 14.6655 10.2235 14.6048 10.3345 14.4208L11.7783 12.0255C11.8896 11.8407 11.8301 11.6007 11.6454 11.4893Z" fill="black"/>
</g>
<defs>
<clipPath id="clip0">
<rect width="20" height="20" fill="white"/>
</clipPath>
</defs>
</svg>
