<svg width="20" height="20" viewBox="0 0 20 20" fill="none" xmlns="http://www.w3.org/2000/svg">
<path d="M14.6203 8.66981C14.4269 8.52879 14.1886 8.44559 13.9308 8.44559C13.7175 8.44559 13.5171 8.50262 13.3449 8.60301C12.9945 8.80535 12.7589 9.18387 12.7589 9.61747V10.7347V10.7737L12.7585 10.7741H9.93661V13.9144H14.2434V10.3987L15.0406 9.24051C14.9621 9.00965 14.8137 8.81082 14.6203 8.66981Z" fill="#FFB578"/>
<path d="M14.4736 8.57898C14.4695 8.57691 14.4599 8.57215 14.4368 8.56105C14.0846 8.39191 13.6748 8.41086 13.3451 8.60285C12.712 8.23453 11.8962 8.53719 11.6534 9.22879H11.653C11.6312 9.22762 11.6093 9.22684 11.587 9.22684C10.9397 9.22684 10.4151 9.75145 10.4151 10.3987L9.93661 10.7741V13.9144H14.2434V10.3987L15.0406 9.24051C14.8707 8.74101 14.4339 8.55746 14.4736 8.57898Z" fill="#CE795F"/>
<path d="M15.2527 9.22722C15.1805 9.22527 15.1094 9.22996 15.0406 9.24051C14.4785 9.32683 14.048 9.81238 14.048 10.3987V11.5706C14.048 12.1401 13.8254 12.6589 13.4621 13.0437C13.0699 13.4593 12.5144 13.7191 11.8995 13.7191H11.8324C11.2956 13.7191 10.7359 13.5535 10.2975 13.257C10.7515 12.9249 11.3018 12.7425 11.8714 12.7425H11.8773C12.5083 12.7425 13.0431 12.2527 13.0703 11.6223C13.0844 11.2947 12.9635 10.9948 12.7585 10.7741C12.7487 10.7632 12.7386 10.7527 12.728 10.7421C12.5159 10.53 12.2229 10.3988 11.8995 10.3988H11.587H10.4151H9.16512C9.13036 10.3995 9.09559 10.4003 9.06122 10.4019C6.92719 10.4925 5.25882 12.2816 5.25882 14.4176C5.25882 14.6316 5.21625 14.8414 5.13578 15.0355C5.05531 15.2297 4.93695 15.4082 4.78577 15.5594L3.92581 16.4193C3.64929 16.6958 3.64909 17.142 3.92175 17.4223C3.95011 17.4515 3.97874 17.4806 4.00757 17.5094C4.92964 18.4315 6.02843 19.1127 7.22754 19.5216C7.48262 19.6086 7.76512 19.5398 7.95567 19.3493C8.45293 18.852 9.06778 18.4887 9.7436 18.2961C11.7909 17.7129 13.6284 16.6145 15.1671 15.0937C15.5621 14.6754 15.8679 14.1926 16.0753 13.6703C16.2832 13.1484 16.3917 12.5874 16.3917 12.0124V11.5706V10.4229C16.3917 9.78465 15.891 9.2448 15.2527 9.22722Z" fill="#FFB578"/>
<path d="M12.5321 10.5845C12.2682 10.8297 12.0264 11.0079 11.936 11.3302C11.8974 11.4681 11.7719 11.5626 11.6291 11.573C11.2604 11.5997 10.8889 11.6797 10.5503 11.8041C10.0934 11.9719 9.906 12.5015 10.1234 12.9209L10.2976 13.2569C11.0807 12.6841 11.9164 12.7425 11.8773 12.7425C13.0712 12.7425 13.5108 11.2142 12.5321 10.5845Z" fill="#CE795F"/>
<path d="M15.8236 9.39856C15.4526 9.60305 15.2199 9.98981 15.2199 10.423V12.0124C15.2199 12.4361 15.1413 12.8483 14.9862 13.2377C14.8337 13.6217 14.6123 13.9708 14.3282 14.2752C12.91 15.6723 11.2596 16.6458 9.42245 17.1691C8.55885 17.4152 7.76506 17.8826 7.12701 18.5206C6.90232 18.7453 6.78201 19.0435 6.7849 19.3564C6.9308 19.4156 7.07842 19.4707 7.22756 19.5216C7.48264 19.6086 7.7651 19.5398 7.95569 19.3493C8.45296 18.852 9.0678 18.4887 9.74362 18.2961C11.7909 17.7129 13.6284 16.6145 15.1672 15.0937C15.5621 14.6754 15.8679 14.1926 16.0754 13.6703C16.2832 13.1484 16.3918 12.5874 16.3918 12.0124V11.5706V10.4229C16.3918 9.99411 16.1655 9.60997 15.8236 9.39856Z" fill="#CE795F"/>
<path d="M7.79886 1.06804L10.6194 0.312298C10.9157 0.232884 11.2203 0.408744 11.2997 0.705112L12.0555 3.52563C12.1349 3.82196 11.959 4.12657 11.6627 4.20599L8.84215 4.96173C8.54582 5.04114 8.24121 4.86528 8.16179 4.56892L7.40605 1.7484C7.32667 1.45203 7.50253 1.14746 7.79886 1.06804Z" fill="#FF5368"/>
<path d="M12.0555 3.52564L11.2998 0.705081C11.2204 0.408752 10.9158 0.232892 10.6194 0.312267L10.024 0.471799L10.764 3.23353L8.00229 3.97353L8.16182 4.56889C8.24124 4.86522 8.54581 5.04108 8.84218 4.9617L11.6627 4.20595C11.9591 4.12658 12.1349 3.82197 12.0555 3.52564Z" fill="#C5324F"/>
<path d="M9.70947 5.87314L6.88895 5.1174C6.59262 5.03798 6.28801 5.21384 6.20859 5.51021L5.45285 8.33073C5.37343 8.62706 5.54929 8.93167 5.84566 9.01108L8.66618 9.76683C8.96251 9.84624 9.26712 9.67038 9.34653 9.37402L10.1023 6.5535C10.1817 6.25713 10.0058 5.95252 9.70947 5.87314Z" fill="#FF5368"/>
<path d="M9.70946 5.87315L9.11411 5.71362L8.3741 8.47535L5.61238 7.73539L5.45285 8.33074C5.37343 8.62707 5.54929 8.93168 5.84562 9.0111L8.66617 9.76684C8.9625 9.84626 9.26711 9.6704 9.34653 9.37407L10.1023 6.55355C10.1816 6.25714 10.0058 5.95253 9.70946 5.87315Z" fill="#C5324F"/>
<path d="M7.87886 4.64521C7.9375 4.86411 8.07789 5.04708 8.27418 5.1604C8.40492 5.23587 8.55 5.27443 8.69699 5.27443C8.7707 5.27443 8.84488 5.26474 8.91801 5.24513L11.7385 4.48938C12.1904 4.36825 12.4595 3.90215 12.3384 3.4502L11.5827 0.629755C11.5241 0.410847 11.3837 0.227877 11.1875 0.114556C10.9912 0.00123556 10.7626 -0.0289599 10.5436 0.0297904L7.72308 0.785537C7.2712 0.90667 7.00206 1.37281 7.12316 1.82472L7.87886 4.64521ZM7.87468 1.35148L10.6952 0.595731C10.763 0.577606 10.8337 0.586903 10.8945 0.621981C10.9552 0.65702 10.9986 0.713661 11.0168 0.781396L11.7725 3.60188C11.81 3.74172 11.7267 3.88594 11.5869 3.92344L8.76637 4.67919C8.69859 4.69735 8.62785 4.68806 8.56711 4.65298C8.5064 4.61794 8.46297 4.5613 8.4448 4.49356L7.68902 1.67304C7.65156 1.5332 7.73488 1.38898 7.87468 1.35148Z" fill="black"/>
<path d="M8.77371 2.3775C8.93552 2.3775 9.06668 2.24634 9.06668 2.08453C9.06668 1.92273 8.93552 1.79156 8.77371 1.79156C8.61191 1.79156 8.48074 1.92273 8.48074 2.08453C8.48074 2.24634 8.61191 2.3775 8.77371 2.3775Z" fill="black"/>
<path d="M10.2831 1.97321C10.4449 1.97321 10.5761 1.84204 10.5761 1.68024C10.5761 1.51844 10.4449 1.38727 10.2831 1.38727C10.1213 1.38727 9.99011 1.51844 9.99011 1.68024C9.99011 1.84204 10.1213 1.97321 10.2831 1.97321Z" fill="black"/>
<path d="M8.97565 3.1322C9.13745 3.1322 9.26862 3.00104 9.26862 2.83923C9.26862 2.67743 9.13745 2.54626 8.97565 2.54626C8.81385 2.54626 8.68268 2.67743 8.68268 2.83923C8.68268 3.00104 8.81385 3.1322 8.97565 3.1322Z" fill="black"/>
<path d="M10.485 2.72806C10.6469 2.72806 10.778 2.59689 10.778 2.43509C10.778 2.27329 10.6469 2.14212 10.485 2.14212C10.3232 2.14212 10.1921 2.27329 10.1921 2.43509C10.1921 2.59689 10.3232 2.72806 10.485 2.72806Z" fill="black"/>
<path d="M9.17798 3.88689C9.33978 3.88689 9.47095 3.75572 9.47095 3.59392C9.47095 3.43212 9.33978 3.30095 9.17798 3.30095C9.01618 3.30095 8.88501 3.43212 8.88501 3.59392C8.88501 3.75572 9.01618 3.88689 9.17798 3.88689Z" fill="black"/>
<path d="M10.6874 3.48279C10.8492 3.48279 10.9803 3.35162 10.9803 3.18982C10.9803 3.02802 10.8492 2.89685 10.6874 2.89685C10.5256 2.89685 10.3944 3.02802 10.3944 3.18982C10.3944 3.35162 10.5256 3.48279 10.6874 3.48279Z" fill="black"/>
<path d="M5.76976 9.29397L8.59051 10.0499C8.662 10.069 8.73543 10.0787 8.8093 10.0787H8.81086C9.19286 10.0787 9.52958 9.82015 9.62962 9.44983L10.3851 6.62908C10.4046 6.5576 10.4144 6.48338 10.4144 6.40916C10.4144 6.02674 10.1558 5.69002 9.78544 5.58998L9.04247 5.39115C9.0327 5.38846 9.02333 5.38646 9.01395 5.3849C8.99836 5.38221 8.98231 5.381 8.96669 5.381C8.83426 5.381 8.71786 5.47045 8.68391 5.59818C8.67684 5.62357 8.67372 5.64939 8.67372 5.67479C8.67414 5.80682 8.76317 5.92283 8.89094 5.95682L9.63352 6.15604C9.74798 6.18615 9.82806 6.29041 9.82845 6.40916C9.82845 6.4326 9.82532 6.45487 9.81946 6.47791L9.0636 9.29827C9.03348 9.41272 8.92922 9.49276 8.81047 9.49276C8.78704 9.49276 8.76477 9.48964 8.74211 9.48382L5.92136 8.72792C5.80691 8.69784 5.72687 8.59358 5.72687 8.47483C5.72687 8.45178 5.72956 8.42952 5.73581 8.40647L6.49171 5.58611C6.52179 5.47127 6.6257 5.39119 6.7448 5.39119C6.76746 5.39119 6.7905 5.39432 6.81316 5.40018L7.75887 5.65369C7.78391 5.66033 7.80926 5.66385 7.83465 5.66385C7.96707 5.66385 8.08348 5.57439 8.11785 5.44662C8.13778 5.37088 8.12762 5.29193 8.08856 5.22439C8.04949 5.15682 7.9866 5.10838 7.91121 5.08807C7.91082 5.08807 7.91082 5.08767 7.91039 5.08767L6.96469 4.83455C6.89281 4.81502 6.81902 4.80525 6.74476 4.80525H6.74437C6.36195 4.80525 6.02523 5.06385 5.92562 5.43455L5.16976 8.25491C5.15023 8.32717 5.14046 8.40096 5.14085 8.47483C5.14042 8.8569 5.39902 9.19401 5.76976 9.29397Z" fill="black"/>
<path d="M7.22489 6.77796C7.38669 6.77796 7.51786 6.64679 7.51786 6.48499C7.51786 6.32318 7.38669 6.19202 7.22489 6.19202C7.06308 6.19202 6.93192 6.32318 6.93192 6.48499C6.93192 6.64679 7.06308 6.77796 7.22489 6.77796Z" fill="black"/>
<path d="M8.73401 7.1825C8.89581 7.1825 9.02698 7.05133 9.02698 6.88953C9.02698 6.72772 8.89581 6.59656 8.73401 6.59656C8.57221 6.59656 8.44104 6.72772 8.44104 6.88953C8.44104 7.05133 8.57221 7.1825 8.73401 7.1825Z" fill="black"/>
<path d="M6.82037 8.288C6.98218 8.288 7.11334 8.15683 7.11334 7.99503C7.11334 7.83322 6.98218 7.70206 6.82037 7.70206C6.65857 7.70206 6.5274 7.83322 6.5274 7.99503C6.5274 8.15683 6.65857 8.288 6.82037 8.288Z" fill="black"/>
<path d="M8.32953 8.69219C8.49133 8.69219 8.6225 8.56102 8.6225 8.39922C8.6225 8.23741 8.49133 8.10625 8.32953 8.10625C8.16773 8.10625 8.03656 8.23741 8.03656 8.39922C8.03656 8.56102 8.16773 8.69219 8.32953 8.69219Z" fill="black"/>
<path d="M15.2608 8.938C15.2494 8.93769 15.2381 8.9375 15.2268 8.93746C14.9765 8.46214 14.4807 8.15585 13.9308 8.15585C13.7227 8.15585 13.5246 8.19949 13.3451 8.27808C13.1611 8.19777 12.9612 8.15585 12.7589 8.15585C12.1957 8.15585 11.7058 8.47542 11.4607 8.94285C10.8101 8.99871 10.2795 9.48187 10.1516 10.1098H9.16513C9.16341 10.1098 9.16169 10.1098 9.15998 10.1098C7.99857 10.1306 6.93083 10.6137 6.14649 11.4463C5.38516 12.2544 4.96582 13.3117 4.96582 14.4231C4.96582 14.7763 4.82828 15.1084 4.57864 15.3582L3.40121 16.5361C3.2868 16.6505 3.2868 16.8361 3.40121 16.9506C3.51566 17.065 3.70113 17.065 3.81555 16.9506L4.99297 15.7727C5.35332 15.4122 5.55176 14.9329 5.55176 14.4231C5.55176 12.3958 7.13747 10.7328 9.16779 10.6959H11.8995C12.3841 10.6959 12.7784 11.0903 12.7784 11.5752C12.7784 12.06 12.3841 12.4544 11.8995 12.4544H11.8715C11.2396 12.4544 10.6357 12.6518 10.1249 13.0252C10.1246 13.0254 10.1244 13.0256 10.1241 13.0258C9.99982 13.1169 9.88349 13.2165 9.77822 13.3218C9.66693 13.4331 9.66345 13.6125 9.77033 13.7281C9.87728 13.8436 10.0563 13.8541 10.1758 13.7518L10.3255 13.6237C12.2514 14.7071 14.3409 13.4759 14.3409 11.5751V10.4028C14.3409 9.95668 14.6687 9.60176 15.0748 9.53523C15.0812 9.53449 15.0877 9.53351 15.0942 9.5323C15.1434 9.52535 15.1937 9.5225 15.2447 9.52387C15.7156 9.5368 16.0987 9.94199 16.0987 10.4272V12.0172C16.0987 13.0907 15.6934 14.1126 14.9572 14.8951C13.4303 16.4036 11.6493 17.4554 9.6633 18.0216C8.94306 18.2269 8.28099 18.6169 7.7486 19.1495L7.39864 19.4996C7.28419 19.6141 7.28419 19.7996 7.3986 19.9141C7.45583 19.9714 7.53079 20 7.60579 20C7.68075 20 7.75575 19.9713 7.81294 19.9141L8.16294 19.5641C8.62494 19.1018 9.19927 18.7634 9.82392 18.5853C11.9073 17.9914 13.7742 16.8888 15.3728 15.3083C15.3753 15.3059 15.3777 15.3035 15.3801 15.301C16.2214 14.4088 16.6847 13.2426 16.6847 12.0172V10.4272C16.6848 9.62758 16.0459 8.95953 15.2608 8.938ZM11.294 9.62129V10.1098H10.7583C10.8468 9.86004 11.0451 9.66184 11.2948 9.57355C11.2943 9.58941 11.294 9.60531 11.294 9.62129ZM12.4659 9.62129V10.2238C12.2916 10.1504 12.1002 10.1098 11.8995 10.1098H11.88V9.62129C11.88 9.13644 12.2743 8.74203 12.7589 8.74203C12.7591 8.74203 12.7594 8.74203 12.7596 8.74203C12.5753 8.98715 12.4659 9.29168 12.4659 9.62129ZM13.755 10.4029V11.5752C13.755 12.5866 12.9363 13.4315 11.8995 13.4315C11.5602 13.4315 11.25 13.3905 10.8975 13.2493C11.2016 13.1119 11.5315 13.0407 11.8715 13.0407H11.8995C12.7073 13.0407 13.3644 12.3833 13.3644 11.5752C13.3644 11.2345 13.2476 10.9206 13.0519 10.6714V9.62129C13.0519 9.13644 13.4462 8.74203 13.9308 8.74203C14.2015 8.74203 14.4503 8.86566 14.614 9.0675C14.1258 9.28976 13.755 9.7893 13.755 10.4029Z" fill="black"/>
</svg>
