<svg id="eS2YR3EZILO1" xmlns="http://www.w3.org/2000/svg" xmlns:xlink="http://www.w3.org/1999/xlink" viewBox="0 0 512 512" shape-rendering="geometricPrecision" text-rendering="geometricPrecision"><g id="eS2YR3EZILO2" transform="matrix(1 0 0 1 0.000001 2)"><path id="eS2YR3EZILO3" d="M374.277,221.946C369.327,218.336,363.227,216.206,356.627,216.206C351.167,216.206,346.037,217.666,341.627,220.236C332.657,225.416,326.627,235.106,326.627,246.206L326.627,274.806L326.627,275.806L326.617,275.816L254.376,275.816L254.376,356.207L364.628,356.207L364.628,266.206L385.038,236.556C383.027,230.646,379.228,225.556,374.277,221.946Z" fill="rgb(255,181,120)" stroke="none" stroke-width="1" stroke-miterlimit="1"/><path id="eS2YR3EZILO4" d="M370.522,219.621C370.418,219.568,370.172,219.446,369.58,219.162C360.565,214.832,350.073,215.317,341.634,220.232L341.634,220.232C325.426,210.803,304.542,218.551,298.326,236.256L298.316,236.256C297.756,236.226,297.196,236.206,296.626,236.206C280.056,236.206,266.626,249.636,266.626,266.206L254.376,275.816L254.376,356.207L364.628,356.207L364.628,266.206L385.038,236.556C380.689,223.769,369.506,219.07,370.522,219.621Z" fill="rgb(206,121,95)" stroke="none" stroke-width="1" stroke-miterlimit="1"/><path id="eS2YR3EZILO5" d="M390.468,236.216C388.618,236.166,386.798,236.286,385.038,236.556C370.648,238.766,359.628,251.196,359.628,266.206L359.628,296.206C359.628,310.786,353.928,324.066,344.628,333.917C334.588,344.557,320.368,351.207,304.627,351.207L302.907,351.207C289.167,351.207,274.837,346.967,263.616,339.377C275.236,330.877,289.326,326.207,303.907,326.207L304.057,326.207C320.21,326.207,333.903,313.667,334.598,297.529C334.959,289.142,331.863,281.465,326.616,275.817C326.366,275.537,326.106,275.267,325.836,274.997C320.406,269.567,312.906,266.207,304.626,266.207L296.626,266.207L266.626,266.207L234.626,266.207C233.736,266.227,232.846,266.247,231.966,266.287C177.335,268.607,134.625,314.408,134.625,369.088C134.625,374.568,133.535,379.938,131.475,384.908C129.415,389.878,126.385,394.448,122.515,398.318L100.5,420.331C93.421,427.41,93.416,438.833,100.396,446.01C101.122,446.757,101.855,447.5,102.593,448.238C126.198,471.843,154.327,489.283,185.024,499.75C191.554,501.977,198.786,500.217,203.664,495.339L203.664,495.339C216.394,482.609,232.134,473.309,249.435,468.379C301.846,453.449,348.886,425.328,388.277,386.398C398.387,375.688,406.217,363.328,411.527,349.957C416.847,336.597,419.627,322.237,419.627,307.516L419.627,296.206L419.627,266.826C419.627,250.486,406.807,236.666,390.468,236.216Z" fill="rgb(255,181,120)" stroke="none" stroke-width="1" stroke-miterlimit="1"/><path id="eS2YR3EZILO6" d="M320.821,270.963C314.065,277.239,307.876,281.8,305.562,290.052C304.572,293.581,301.359,296.002,297.704,296.267C288.267,296.951,278.755,299,270.086,302.184C258.39,306.479,253.593,320.038,259.159,330.775L263.618,339.376C283.665,324.712,305.059,326.206,304.059,326.206C334.623,326.207,345.876,287.082,320.821,270.963Z" fill="rgb(206,121,95)" stroke="none" stroke-width="1" stroke-miterlimit="1"/><path id="eS2YR3EZILO7" d="M405.082,240.602C395.584,245.837,389.627,255.738,389.627,266.827L389.627,307.517C389.627,318.363,387.615,328.914,383.646,338.884C379.742,348.715,374.074,357.65,366.8,365.444C330.494,401.208,288.244,426.131,241.214,439.527C219.106,445.827,198.785,457.792,182.451,474.126C176.699,479.878,173.619,487.511,173.693,495.521C177.428,497.038,181.207,498.448,185.025,499.75C191.555,501.977,198.786,500.217,203.665,495.339C216.395,482.609,232.135,473.309,249.436,468.379C301.847,453.449,348.887,425.328,388.278,386.398C398.388,375.688,406.218,363.328,411.528,349.957C416.848,336.597,419.628,322.237,419.628,307.516L419.628,296.206L419.628,266.826C419.628,255.848,413.836,246.014,405.082,240.602Z" fill="rgb(206,121,95)" stroke="none" stroke-width="1" stroke-miterlimit="1"/><path id="eS2YR3EZILO8" d="M390.676,228.812C390.385,228.804,390.095,228.799,389.805,228.798C383.397,216.63,370.704,208.789,356.627,208.789C351.3,208.789,346.228,209.906,341.634,211.918C336.923,209.862,331.807,208.789,326.627,208.789C312.21,208.789,299.667,216.97,293.394,228.936C276.737,230.366,263.155,242.735,259.881,258.809L234.627,258.809C234.583,258.809,234.539,258.809,234.495,258.81C204.763,259.343,177.429,271.71,157.35,293.023C137.86,313.712,127.125,340.777,127.125,369.23C127.125,378.273,123.604,386.774,117.213,393.168L87.071,423.322C84.142,426.252,84.142,431.003,87.071,433.933C90.001,436.863,94.749,436.863,97.678,433.933L127.82,403.779C137.045,394.551,142.125,382.281,142.125,369.23C142.125,317.331,182.719,274.758,234.695,273.814L304.627,273.814C317.033,273.814,327.127,283.911,327.127,296.323C327.127,308.735,317.033,318.832,304.627,318.832L303.911,318.832C287.733,318.832,272.273,323.884,259.198,333.443C259.19,333.448,259.183,333.454,259.176,333.459C255.995,335.792,253.017,338.342,250.322,341.037C247.473,343.887,247.384,348.479,250.12,351.438C252.858,354.396,257.442,354.664,260.501,352.044L264.333,348.765C313.635,376.5,367.127,344.981,367.127,296.321L367.127,266.31C367.127,254.89,375.517,245.804,385.914,244.101C386.079,244.082,386.245,244.057,386.41,244.026C387.67,243.848,388.958,243.775,390.264,243.81C402.319,244.141,412.126,254.514,412.126,266.935L412.126,307.639C412.126,335.121,401.75,361.28,382.903,381.312C343.814,419.93,298.221,446.856,247.38,461.35C228.942,466.607,211.993,476.591,198.364,490.226L189.405,499.188C186.475,502.118,186.475,506.869,189.404,509.799C190.869,511.265,192.788,511.997,194.708,511.997C196.627,511.997,198.547,511.264,200.011,509.8L208.971,500.838C220.798,489.005,235.501,480.341,251.492,475.783C304.827,460.578,352.62,432.352,393.544,391.892C393.607,391.83,393.668,391.767,393.729,391.704C415.266,368.863,427.127,339.008,427.127,307.64L427.127,266.936C427.129,246.465,410.775,229.363,390.676,228.812ZM289.127,246.304L289.127,258.809L275.412,258.809C277.678,252.416,282.754,247.342,289.147,245.082C289.134,245.488,289.127,245.895,289.127,246.304ZM319.127,246.304L319.127,261.727C314.664,259.848,309.765,258.809,304.627,258.809L304.127,258.809L304.127,246.304C304.127,233.892,314.221,223.795,326.627,223.795C326.633,223.795,326.639,223.795,326.645,223.795C321.926,230.07,319.127,237.866,319.127,246.304ZM352.127,266.312L352.127,296.324C352.127,322.215,331.168,343.844,304.626,343.844C295.94,343.844,287.999,342.795,278.976,339.181C286.76,335.664,295.206,333.84,303.911,333.84L304.627,333.84C325.305,333.84,342.128,317.011,342.128,296.324C342.128,287.602,339.137,279.566,334.128,273.188L334.128,246.304C334.128,233.892,344.222,223.795,356.628,223.795C363.558,223.795,369.928,226.96,374.117,232.127C361.619,237.817,352.127,250.605,352.127,266.312Z" transform="matrix(1 0 0 1 1.400803 -3.5207)" fill="rgb(0,0,0)" stroke="none" stroke-width="1" stroke-miterlimit="1"/></g><g id="eS2YR3EZILO9" transform="matrix(-0.996195 0.087156 -0.087156 -0.996195 503.150271 113.045471)"><path id="eS2YR3EZILO10" d="M199.65,27.342L271.855,7.995C279.441,5.962,287.239,10.464,289.272,18.051L308.619,90.256C310.652,97.842,306.15,105.64,298.563,107.673L226.358,127.02C218.772,129.053,210.974,124.551,208.941,116.964L189.594,44.759C187.562,37.172,192.064,29.375,199.65,27.342Z" fill="rgb(255,83,104)" stroke="none" stroke-width="1" stroke-miterlimit="1"/><path id="eS2YR3EZILO11" d="M308.62,90.256L289.273,18.05C287.24,10.464,279.443,5.962,271.856,7.994L256.614,12.078L275.558,82.778L204.858,101.722L208.942,116.963C210.975,124.549,218.772,129.051,226.359,127.019L298.565,107.672C306.151,105.64,310.653,97.842,308.62,90.256Z" fill="rgb(197,50,79)" stroke="none" stroke-width="1" stroke-miterlimit="1"/><path id="eS2YR3EZILO12" d="M201.698,118.905C203.199,124.509,206.793,129.193,211.818,132.094C215.165,134.026,218.879,135.013,222.642,135.013C224.529,135.013,226.428,134.765,228.3,134.263L300.505,114.916C312.072,111.815,318.962,99.883,315.863,88.313L296.517,16.11C295.016,10.506,291.422,5.822,286.398,2.921C281.374,0.02,275.522,-0.753,269.916,0.751L197.71,20.098C186.142,23.199,179.252,35.132,182.352,46.701L201.698,118.905ZM201.591,34.586L273.796,15.239C275.531,14.775,277.341,15.013,278.897,15.911C280.451,16.808,281.563,18.258,282.028,19.992L301.376,92.196C302.334,95.776,300.202,99.468,296.623,100.428L224.418,119.775C222.683,120.24,220.872,120.002,219.317,119.104C217.763,118.207,216.651,116.757,216.186,115.023L196.838,42.818C195.879,39.238,198.012,35.546,201.591,34.586Z" fill="rgb(0,0,0)" stroke="none" stroke-width="1" stroke-miterlimit="1"/><ellipse id="eS2YR3EZILO13" rx="7.5" ry="7.5" transform="matrix(1 0 0 1 224.606 53.364)" fill="rgb(0,0,0)" stroke="none" stroke-width="1" stroke-miterlimit="1"/><ellipse id="eS2YR3EZILO14" rx="7.5" ry="7.5" transform="matrix(1 0 0 1 263.246 43.014)" fill="rgb(0,0,0)" stroke="none" stroke-width="1" stroke-miterlimit="1"/><ellipse id="eS2YR3EZILO15" rx="7.5" ry="7.5" transform="matrix(1 0 0 1 229.776 72.684)" fill="rgb(0,0,0)" stroke="none" stroke-width="1" stroke-miterlimit="1"/><ellipse id="eS2YR3EZILO16" rx="7.5" ry="7.5" transform="matrix(1 0 0 1 268.416 62.338)" fill="rgb(0,0,0)" stroke="none" stroke-width="1" stroke-miterlimit="1"/><ellipse id="eS2YR3EZILO17" rx="7.5" ry="7.5" transform="matrix(1 0 0 1 234.955 92.004)" fill="rgb(0,0,0)" stroke="none" stroke-width="1" stroke-miterlimit="1"/><ellipse id="eS2YR3EZILO18" rx="7.5" ry="7.5" transform="matrix(1 0 0 1 273.596 81.659)" fill="rgb(0,0,0)" stroke="none" stroke-width="1" stroke-miterlimit="1"/></g><g id="eS2YR3EZILO19" transform="matrix(-0.996195 0.087156 -0.087156 -0.996195 409.713748 367.611609)"><path id="eS2YR3EZILO20" d="M248.561,150.352L176.356,131.005C168.77,128.972,160.972,133.474,158.939,141.061L139.592,213.266C137.559,220.852,142.061,228.65,149.648,230.683L221.853,250.03C229.439,252.063,237.237,247.561,239.27,239.974L258.617,167.769C260.649,160.182,256.147,152.384,248.561,150.352Z" fill="rgb(255,83,104)" stroke="none" stroke-width="1" stroke-miterlimit="1"/><path id="eS2YR3EZILO21" d="M248.561,150.352L233.32,146.268L214.376,216.968L143.676,198.025L139.592,213.266C137.559,220.852,142.061,228.65,149.647,230.683L221.853,250.03C229.439,252.063,237.237,247.561,239.27,239.975L258.617,167.77C260.649,160.182,256.147,152.384,248.561,150.352Z" fill="rgb(197,50,79)" stroke="none" stroke-width="1" stroke-miterlimit="1"/><path id="eS2YR3EZILO22" d="M147.705,237.925L219.916,257.276C221.746,257.765,223.626,258.015,225.517,258.015L225.557,258.015C235.336,258.015,243.956,251.395,246.517,241.915L265.857,169.704C266.357,167.874,266.607,165.974,266.607,164.074C266.607,154.284,259.987,145.664,250.506,143.103L231.486,138.013C231.236,137.944,230.996,137.893,230.756,137.853C230.357,137.784,229.946,137.753,229.546,137.753C226.156,137.753,223.176,140.043,222.307,143.313C222.126,143.963,222.046,144.624,222.046,145.274C222.057,148.654,224.336,151.624,227.607,152.494L246.617,157.594C249.547,158.365,251.597,161.034,251.607,164.074C251.607,164.674,251.527,165.244,251.377,165.834L232.027,238.035C231.256,240.965,228.587,243.014,225.547,243.014C224.947,243.014,224.377,242.934,223.797,242.785L151.586,223.434C148.656,222.664,146.607,219.995,146.607,216.955C146.607,216.365,146.676,215.795,146.836,215.205L166.187,143.004C166.957,140.064,169.617,138.014,172.666,138.014C173.246,138.014,173.836,138.094,174.416,138.244L198.626,144.734C199.267,144.904,199.916,144.994,200.566,144.994C203.956,144.994,206.936,142.704,207.816,139.433C208.326,137.494,208.066,135.473,207.066,133.744C206.066,132.014,204.456,130.774,202.526,130.254C202.516,130.254,202.516,130.244,202.505,130.244L178.295,123.764C176.455,123.264,174.566,123.014,172.665,123.014L172.655,123.014C162.865,123.014,154.245,129.634,151.695,139.124L132.345,211.325C131.845,213.175,131.595,215.064,131.605,216.955C131.594,226.736,138.214,235.366,147.705,237.925Z" transform="matrix(1 0 0 1 0 -0.168421)" fill="rgb(0,0,0)" stroke="none" stroke-width="1" stroke-miterlimit="1"/><ellipse id="eS2YR3EZILO23" rx="7.5" ry="7.5" transform="matrix(1 0 0 1 184.956 166.015)" fill="rgb(0,0,0)" stroke="none" stroke-width="1" stroke-miterlimit="1"/><ellipse id="eS2YR3EZILO24" rx="7.5" ry="7.5" transform="matrix(1 0 0 1 223.59 176.371)" fill="rgb(0,0,0)" stroke="none" stroke-width="1" stroke-miterlimit="1"/><ellipse id="eS2YR3EZILO25" rx="7.5" ry="7.5" transform="matrix(1 0 0 1 174.601 204.672)" fill="rgb(0,0,0)" stroke="none" stroke-width="1" stroke-miterlimit="1"/><ellipse id="eS2YR3EZILO26" rx="7.5" ry="7.5" transform="matrix(1 0 0 1 213.235 215.019)" fill="rgb(0,0,0)" stroke="none" stroke-width="1" stroke-miterlimit="1"/></g><script><![CDATA[!function(t,n){"object"==typeof exports&&"undefined"!=typeof module?module.exports=n():"function"==typeof define&&define.amd?define(n):(t="undefined"!=typeof globalThis?globalThis:t||self).__SVGATOR_PLAYER__=n()}(this,(function(){"use strict";function t(n){return(t="function"==typeof Symbol&&"symbol"==typeof Symbol.iterator?function(t){return typeof t}:function(t){return t&&"function"==typeof Symbol&&t.constructor===Symbol&&t!==Symbol.prototype?"symbol":typeof t})(n)}function n(t,n){if(!(t instanceof n))throw new TypeError("Cannot call a class as a function")}function r(t,n){for(var r=0;r<n.length;r++){var e=n[r];e.enumerable=e.enumerable||!1,e.configurable=!0,"value"in e&&(e.writable=!0),Object.defineProperty(t,e.key,e)}}function e(t,n,e){return n&&r(t.prototype,n),e&&r(t,e),t}function i(t){return(i=Object.setPrototypeOf?Object.getPrototypeOf:function(t){return t.__proto__||Object.getPrototypeOf(t)})(t)}function o(t,n){return(o=Object.setPrototypeOf||function(t,n){return t.__proto__=n,t})(t,n)}function u(t,n){return!n||"object"!=typeof n&&"function"!=typeof n?function(t){if(void 0===t)throw new ReferenceError("this hasn't been initialised - super() hasn't been called");return t}(t):n}function a(t){var n=function(){if("undefined"==typeof Reflect||!Reflect.construct)return!1;if(Reflect.construct.sham)return!1;if("function"==typeof Proxy)return!0;try{return Boolean.prototype.valueOf.call(Reflect.construct(Boolean,[],(function(){}))),!0}catch(t){return!1}}();return function(){var r,e=i(t);if(n){var o=i(this).constructor;r=Reflect.construct(e,arguments,o)}else r=e.apply(this,arguments);return u(this,r)}}function l(t,n,r){return(l="undefined"!=typeof Reflect&&Reflect.get?Reflect.get:function(t,n,r){var e=function(t,n){for(;!Object.prototype.hasOwnProperty.call(t,n)&&null!==(t=i(t)););return t}(t,n);if(e){var o=Object.getOwnPropertyDescriptor(e,n);return o.get?o.get.call(r):o.value}})(t,n,r||t)}var f=s(Math.pow(10,-6));function s(t){var n=arguments.length>1&&void 0!==arguments[1]?arguments[1]:6;if(Number.isInteger(t))return t;var r=Math.pow(10,n);return Math.round((+t+Number.EPSILON)*r)/r}function c(t,n){var r=arguments.length>2&&void 0!==arguments[2]?arguments[2]:f;return Math.abs(t-n)<r}var h=Math.PI/180;function v(t){return t}function y(t,n,r){var e=1-r;return 3*r*e*(t*e+n*r)+r*r*r}function d(){var t=arguments.length>0&&void 0!==arguments[0]?arguments[0]:0,n=arguments.length>1&&void 0!==arguments[1]?arguments[1]:0,r=arguments.length>2&&void 0!==arguments[2]?arguments[2]:1,e=arguments.length>3&&void 0!==arguments[3]?arguments[3]:1;return t<0||t>1||r<0||r>1?null:c(t,n)&&c(r,e)?v:function(i){if(i<=0)return t>0?i*n/t:0===n&&r>0?i*e/r:0;if(i>=1)return r<1?1+(i-1)*(e-1)/(r-1):1===r&&t<1?1+(i-1)*(n-1)/(t-1):1;for(var o,u=0,a=1;u<a;){var l=y(t,r,o=(u+a)/2);if(c(i,l))break;l<i?u=o:a=o}return y(n,e,o)}}function g(){return 1}function p(t){return 1===t?1:0}function m(){var t=arguments.length>0&&void 0!==arguments[0]?arguments[0]:1,n=arguments.length>1&&void 0!==arguments[1]?arguments[1]:0;if(1===t){if(0===n)return p;if(1===n)return g}var r=1/t;return function(t){return t>=1?1:(t+=n*r)-t%r}}function b(t,n,r){return t>=.5?r:n}function w(t,n,r){return 0===t||n===r?n:t*(r-n)+n}function x(t,n,r){var e=w(t,n,r);return e<=0?0:e}function k(t,n,r){return 0===t?n:1===t?r:{x:w(t,n.x,r.x),y:w(t,n.y,r.y)}}function A(t,n,r){var e=function(t,n,r){return Math.round(w(t,n,r))}(t,n,r);return e<=0?0:e>=255?255:e}function _(t,n,r){return 0===t?n:1===t?r:{r:A(t,n.r,r.r),g:A(t,n.g,r.g),b:A(t,n.b,r.b),a:w(t,null==n.a?1:n.a,null==r.a?1:r.a)}}function S(t,n,r){if(0===t)return n;if(1===t)return r;var e=n.length;if(e!==r.length)return b(t,n,r);for(var i=[],o=0;o<e;o++)i.push(_(t,n[o],r[o]));return i}function O(t,n){for(var r=[],e=0;e<t;e++)r.push(n);return r}function M(t,n){if(--n<=0)return t;var r=(t=Object.assign([],t)).length;do{for(var e=0;e<r;e++)t.push(t[e])}while(--n>0);return t}var j,P=function(){function t(r){n(this,t),this.list=r,this.length=r.length}return e(t,[{key:"setAttribute",value:function(t,n){for(var r=this.list,e=0;e<this.length;e++)r[e].setAttribute(t,n)}},{key:"removeAttribute",value:function(t){for(var n=this.list,r=0;r<this.length;r++)n[r].removeAttribute(t)}},{key:"style",value:function(t,n){for(var r=this.list,e=0;e<this.length;e++)r[e].style[t]=n}}]),t}(),B=/-./g,E=function(t,n){return n.toUpperCase()};function F(t){return"function"==typeof t?t:b}function I(t){return t?"function"==typeof t?t:Array.isArray(t)?function(t){var n=arguments.length>1&&void 0!==arguments[1]?arguments[1]:v;if(!Array.isArray(t))return n;switch(t.length){case 1:return m(t[0])||n;case 2:return m(t[0],t[1])||n;case 4:return d(t[0],t[1],t[2],t[3])||n}return n}(t,null):function(t,n){var r=arguments.length>2&&void 0!==arguments[2]?arguments[2]:v;switch(t){case"linear":return v;case"steps":return m(n.steps||1,n.jump||0)||r;case"bezier":case"cubic-bezier":return d(n.x1||0,n.y1||0,n.x2||0,n.y2||0)||r}return r}(t.type,t.value,null):null}function R(t,n,r){var e=arguments.length>3&&void 0!==arguments[3]&&arguments[3],i=n.length-1;if(t<=n[0].t)return e?[0,0,n[0].v]:n[0].v;if(t>=n[i].t)return e?[i,1,n[i].v]:n[i].v;var o,u=n[0],a=null;for(o=1;o<=i;o++){if(!(t>n[o].t)){a=n[o];break}u=n[o]}return null==a?e?[i,1,n[i].v]:n[i].v:u.t===a.t?e?[o,1,a.v]:a.v:(t=(t-u.t)/(a.t-u.t),u.e&&(t=u.e(t)),e?[o,t,r(t,u.v,a.v)]:r(t,u.v,a.v))}function q(t,n){var r=arguments.length>2&&void 0!==arguments[2]?arguments[2]:null;return t&&t.length?"function"!=typeof n?null:("function"!=typeof r&&(r=null),function(e){var i=R(e,t,n);return null!=i&&r&&(i=r(i)),i}):null}function T(t,n){return t.t-n.t}function N(n,r,e,i,o){var u,a="@"===e[0],l="#"===e[0],f=j[e],s=b;switch(a?(u=e.substr(1),e=u.replace(B,E)):l&&(e=e.substr(1)),t(f)){case"function":if(s=f(i,o,R,I,e,a,r,n),l)return s;break;case"string":s=q(i,F(f));break;case"object":if((s=q(i,F(f.i),f.f))&&"function"==typeof f.u)return f.u(r,s,e,a,n)}return s?function(t,n,r){var e=arguments.length>3&&void 0!==arguments[3]&&arguments[3];if(e)return t instanceof P?function(e){return t.style(n,r(e))}:function(e){return t.style[n]=r(e)};if(Array.isArray(n)){var i=n.length;return function(e){var o=r(e);if(null==o)for(var u=0;u<i;u++)t[u].removeAttribute(n);else for(var a=0;a<i;a++)t[a].setAttribute(n,o)}}return function(e){var i=r(e);null==i?t.removeAttribute(n):t.setAttribute(n,i)}}(r,e,s,a):null}function C(n,r,e,i){if(!i||"object"!==t(i))return null;var o=null,u=null;return Array.isArray(i)?u=function(t){if(!t||!t.length)return null;for(var n=0;n<t.length;n++)t[n].e&&(t[n].e=I(t[n].e));return t.sort(T)}(i):(u=i.keys,o=i.data||null),u?N(n,r,e,u,o):null}function z(t,n,r){if(!r)return null;var e=[];for(var i in r)if(r.hasOwnProperty(i)){var o=C(t,n,i,r[i]);o&&e.push(o)}return e.length?e:null}function L(t,n){if(!n.duration||n.duration<0)return null;var r=function(t,n){if(!n)return null;var r=[];if(Array.isArray(n))for(var e=n.length,i=0;i<e;i++){var o=n[i];if(2===o.length){var u=null;if("string"==typeof o[0])u=t.getElementById(o[0]);else if(Array.isArray(o[0])){u=[];for(var a=0;a<o[0].length;a++)if("string"==typeof o[0][a]){var l=t.getElementById(o[0][a]);l&&u.push(l)}u=u.length?1===u.length?u[0]:new P(u):null}if(u){var f=z(t,u,o[1]);f&&(r=r.concat(f))}}}else for(var s in n)if(n.hasOwnProperty(s)){var c=t.getElementById(s);if(c){var h=z(t,c,n[s]);h&&(r=r.concat(h))}}return r.length?r:null}(t,n.elements);return r?function(t,n){var r=arguments.length>2&&void 0!==arguments[2]?arguments[2]:1/0,e=arguments.length>3&&void 0!==arguments[3]?arguments[3]:1,i=arguments.length>4&&void 0!==arguments[4]&&arguments[4],o=arguments.length>5&&void 0!==arguments[5]?arguments[5]:1,u=t.length,a=e>0?n:0;i&&r%2==0&&(a=n-a);var l=null;return function(f,s){var c=f%n,h=1+(f-c)/n;s*=e,i&&h%2==0&&(s=-s);var v=!1;if(h>r)c=a,v=!0,-1===o&&(c=e>0?0:n);else if(s<0&&(c=n-c),c===l)return!1;l=c;for(var y=0;y<u;y++)t[y](c);return v}}(r,n.duration,n.iterations||1/0,n.direction||1,!!n.alternate,n.fill||1):null}var D=function(){function t(r,e){var i=arguments.length>2&&void 0!==arguments[2]?arguments[2]:{};n(this,t),this._id=0,this._running=!1,this._rollingBack=!1,this._animations=r,this.duration=e.duration,this.alternate=e.alternate,this.fill=e.fill,this.iterations=e.iterations,this.direction=i.direction||1,this.speed=i.speed||1,this.fps=i.fps||100,this.offset=i.offset||0,this.rollbackStartOffset=0}return e(t,[{key:"_rollback",value:function(){var t=this,n=1/0,r=null;this.rollbackStartOffset=this.offset,this._rollingBack||(this._rollingBack=!0,this._running=!0);this._id=window.requestAnimationFrame((function e(i){if(t._rollingBack){null==r&&(r=i);var o=i-r,u=t.rollbackStartOffset-o,a=Math.round(u*t.speed);if(a>t.duration&&n!=1/0){var l=!!t.alternate&&a/t.duration%2>1,f=a%t.duration;a=(f+=l?t.duration:0)||t.duration}var s=t.fps?1e3/t.fps:0,c=Math.max(0,a);if(c<n-s){t.offset=c,n=c;for(var h=t._animations,v=h.length,y=0;y<v;y++)h[y](c,t.direction)}var d=!1;if(t.iterations>0&&-1===t.fill){var g=t.iterations*t.duration,p=g==a;a=p?0:a,t.offset=p?0:t.offset,d=a>g}a>0&&t.offset>=a&&!d?t._id=window.requestAnimationFrame(e):t.stop()}}))}},{key:"_start",value:function(){var t=this,n=arguments.length>0&&void 0!==arguments[0]?arguments[0]:0,r=-1/0,e=null,i={},o=function o(u){t._running=!0,null==e&&(e=u);var a=Math.round((u-e+n)*t.speed),l=t.fps?1e3/t.fps:0;if(a>r+l&&!t._rollingBack){t.offset=a,r=a;for(var f=t._animations,s=f.length,c=0,h=0;h<s;h++)i[h]?c++:(i[h]=f[h](a,t.direction),i[h]&&c++);if(c===s)return void t._stop()}t._id=window.requestAnimationFrame(o)};this._id=window.requestAnimationFrame(o)}},{key:"_stop",value:function(){this._id&&window.cancelAnimationFrame(this._id),this._running=!1,this._rollingBack=!1}},{key:"play",value:function(){!this._rollingBack&&this._running||(this._rollingBack=!1,this.rollbackStartOffset>this.duration&&(this.offset=this.rollbackStartOffset-(this.rollbackStartOffset-this.offset)%this.duration,this.rollbackStartOffset=0),this._start(this.offset))}},{key:"stop",value:function(){this._stop(),this.offset=0,this.rollbackStartOffset=0;var t=this.direction,n=this._animations;window.requestAnimationFrame((function(){for(var r=0;r<n.length;r++)n[r](0,t)}))}},{key:"reachedToEnd",value:function(){return this.iterations>0&&this.offset>=this.iterations*this.duration}},{key:"restart",value:function(){this._stop(),this.offset=0,this._start()}},{key:"pause",value:function(){this._stop()}},{key:"reverse",value:function(){this.direction=-this.direction}}],[{key:"build",value:function(n,r){return(n=function(t,n){if(j=n,!t||!t.root||!Array.isArray(t.animations))return null;for(var r=document.getElementsByTagName("svg"),e=!1,i=0;i<r.length;i++)if(r[i].id===t.root&&!r[i].svgatorAnimation){(e=r[i]).svgatorAnimation=!0;break}if(!e)return null;var o=t.animations.map((function(t){return L(e,t)})).filter((function(t){return!!t}));return o.length?{element:e,animations:o,animationSettings:t.animationSettings,options:t.options||void 0}:null}(n,r))?{el:n.element,options:n.options||{},player:new t(n.animations,n.animationSettings,n.options)}:null}}]),t}();function Q(t){return s(t)+""}function U(t){var n=arguments.length>1&&void 0!==arguments[1]?arguments[1]:" ";return t&&t.length?t.map(Q).join(n):""}function V(t){return t?null==t.a||t.a>=1?"rgb("+t.r+","+t.g+","+t.b+")":"rgba("+t.r+","+t.g+","+t.b+","+t.a+")":"transparent"}!function(){for(var t=0,n=["ms","moz","webkit","o"],r=0;r<n.length&&!window.requestAnimationFrame;++r)window.requestAnimationFrame=window[n[r]+"RequestAnimationFrame"],window.cancelAnimationFrame=window[n[r]+"CancelAnimationFrame"]||window[n[r]+"CancelRequestAnimationFrame"];window.requestAnimationFrame||(window.requestAnimationFrame=function(n){var r=Date.now(),e=Math.max(0,16-(r-t)),i=window.setTimeout((function(){n(r+e)}),e);return t=r+e,i},window.cancelAnimationFrame=window.clearTimeout)}();var G={f:null,i:function(t,n,r){return 0===t?n:1===t?r:{x:x(t,n.x,r.x),y:x(t,n.y,r.y)}},u:function(t,n){return function(r){var e=n(r);t.setAttribute("rx",Q(e.x)),t.setAttribute("ry",Q(e.y))}}},H={f:null,i:function(t,n,r){return 0===t?n:1===t?r:{width:x(t,n.width,r.width),height:x(t,n.height,r.height)}},u:function(t,n){return function(r){var e=n(r);t.setAttribute("width",Q(e.width)),t.setAttribute("height",Q(e.height))}}},Y=Math.sin,Z=Math.cos,J=Math.acos,K=Math.asin,W=Math.tan,X=Math.atan2,$=Math.PI/180,tt=180/Math.PI,nt=Math.sqrt,rt=function(){function t(){var r=arguments.length>0&&void 0!==arguments[0]?arguments[0]:1,e=arguments.length>1&&void 0!==arguments[1]?arguments[1]:0,i=arguments.length>2&&void 0!==arguments[2]?arguments[2]:0,o=arguments.length>3&&void 0!==arguments[3]?arguments[3]:1,u=arguments.length>4&&void 0!==arguments[4]?arguments[4]:0,a=arguments.length>5&&void 0!==arguments[5]?arguments[5]:0;n(this,t),this.m=[r,e,i,o,u,a],this.i=null,this.w=null,this.s=null}return e(t,[{key:"determinant",get:function(){var t=this.m;return t[0]*t[3]-t[1]*t[2]}},{key:"isIdentity",get:function(){if(null===this.i){var t=this.m;this.i=1===t[0]&&0===t[1]&&0===t[2]&&1===t[3]&&0===t[4]&&0===t[5]}return this.i}},{key:"point",value:function(t,n){var r=this.m;return{x:r[0]*t+r[2]*n+r[4],y:r[1]*t+r[3]*n+r[5]}}},{key:"translateSelf",value:function(){var t=arguments.length>0&&void 0!==arguments[0]?arguments[0]:0,n=arguments.length>1&&void 0!==arguments[1]?arguments[1]:0;if(!t&&!n)return this;var r=this.m;return r[4]+=r[0]*t+r[2]*n,r[5]+=r[1]*t+r[3]*n,this.w=this.s=this.i=null,this}},{key:"rotateSelf",value:function(){var t=arguments.length>0&&void 0!==arguments[0]?arguments[0]:0;if(t%=360){var n=Y(t*=$),r=Z(t),e=this.m,i=e[0],o=e[1];e[0]=i*r+e[2]*n,e[1]=o*r+e[3]*n,e[2]=e[2]*r-i*n,e[3]=e[3]*r-o*n,this.w=this.s=this.i=null}return this}},{key:"scaleSelf",value:function(){var t=arguments.length>0&&void 0!==arguments[0]?arguments[0]:1,n=arguments.length>1&&void 0!==arguments[1]?arguments[1]:1;if(1!==t||1!==n){var r=this.m;r[0]*=t,r[1]*=t,r[2]*=n,r[3]*=n,this.w=this.s=this.i=null}return this}},{key:"skewSelf",value:function(t,n){if(n%=360,(t%=360)||n){var r=this.m,e=r[0],i=r[1],o=r[2],u=r[3];t&&(t=W(t*$),r[2]+=e*t,r[3]+=i*t),n&&(n=W(n*$),r[0]+=o*n,r[1]+=u*n),this.w=this.s=this.i=null}return this}},{key:"resetSelf",value:function(){var t=arguments.length>0&&void 0!==arguments[0]?arguments[0]:1,n=arguments.length>1&&void 0!==arguments[1]?arguments[1]:0,r=arguments.length>2&&void 0!==arguments[2]?arguments[2]:0,e=arguments.length>3&&void 0!==arguments[3]?arguments[3]:1,i=arguments.length>4&&void 0!==arguments[4]?arguments[4]:0,o=arguments.length>5&&void 0!==arguments[5]?arguments[5]:0,u=this.m;return u[0]=t,u[1]=n,u[2]=r,u[3]=e,u[4]=i,u[5]=o,this.w=this.s=this.i=null,this}},{key:"recomposeSelf",value:function(){var t=arguments.length>0&&void 0!==arguments[0]?arguments[0]:null,n=arguments.length>1&&void 0!==arguments[1]?arguments[1]:null,r=arguments.length>2&&void 0!==arguments[2]?arguments[2]:null,e=arguments.length>3&&void 0!==arguments[3]?arguments[3]:null,i=arguments.length>4&&void 0!==arguments[4]?arguments[4]:null;return this.isIdentity||this.resetSelf(),t&&(t.x||t.y)&&this.translateSelf(t.x,t.y),n&&this.rotateSelf(n),r&&(r.x&&this.skewSelf(r.x,0),r.y&&this.skewSelf(0,r.y)),!e||1===e.x&&1===e.y||this.scaleSelf(e.x,e.y),i&&(i.x||i.y)&&this.translateSelf(i.x,i.y),this}},{key:"decompose",value:function(){var t=arguments.length>0&&void 0!==arguments[0]?arguments[0]:0,n=arguments.length>1&&void 0!==arguments[1]?arguments[1]:0,r=this.m,e=r[0]*r[0]+r[1]*r[1],i=[[r[0],r[1]],[r[2],r[3]]],o=nt(e);if(0===o)return{origin:{x:s(r[4]),y:s(r[5])},translate:{x:s(t),y:s(n)},scale:{x:0,y:0},skew:{x:0,y:0},rotate:0};i[0][0]/=o,i[0][1]/=o;var u=r[0]*r[3]-r[1]*r[2]<0;u&&(o=-o);var a=i[0][0]*i[1][0]+i[0][1]*i[1][1];i[1][0]-=i[0][0]*a,i[1][1]-=i[0][1]*a;var l=nt(i[1][0]*i[1][0]+i[1][1]*i[1][1]);if(0===l)return{origin:{x:s(r[4]),y:s(r[5])},translate:{x:s(t),y:s(n)},scale:{x:s(o),y:0},skew:{x:0,y:0},rotate:0};i[1][0]/=l,i[1][1]/=l,a/=l;var f=0;return i[1][1]<0?(f=J(i[1][1])*tt,i[0][1]<0&&(f=360-f)):f=K(i[0][1])*tt,u&&(f=-f),a=X(a,nt(i[0][0]*i[0][0]+i[0][1]*i[0][1]))*tt,u&&(a=-a),{origin:{x:s(r[4]),y:s(r[5])},translate:{x:s(t),y:s(n)},scale:{x:s(o),y:s(l)},skew:{x:s(a),y:0},rotate:s(f)}}},{key:"toString",value:function(){return null===this.s&&(this.s="matrix("+this.m.map((function(t){return s(t)})).join(" ")+")"),this.s}}]),t}();Object.freeze({M:2,L:2,Z:0,H:1,V:1,C:6,Q:4,T:2,S:4,A:7});var et={},it=null;function ot(n){var r=function(){if(it)return it;if("object"!==("undefined"==typeof document?"undefined":t(document))||!document.createElementNS)return{};var n=document.createElementNS("http://www.w3.org/2000/svg","svg");return n&&n.style?(n.style.position="absolute",n.style.opacity="0.01",n.style.zIndex="-9999",n.style.left="-9999px",n.style.width="1px",n.style.height="1px",it={svg:n}):{}}().svg;if(!r)return function(t){return null};var e=document.createElementNS(r.namespaceURI,"path");e.setAttributeNS(null,"d",n),e.setAttributeNS(null,"fill","none"),e.setAttributeNS(null,"stroke","none"),r.appendChild(e);var i=e.getTotalLength();return function(t){var n=e.getPointAtLength(i*t);return{x:n.x,y:n.y}}}function ut(t){return et[t]?et[t]:et[t]=ot(t)}function at(t,n,r,e){if(!t||!e)return!1;var i=["M",t.x,t.y];if(n&&r&&(i.push("C"),i.push(n.x),i.push(n.y),i.push(r.x),i.push(r.y)),n?!r:r){var o=n||r;i.push("Q"),i.push(o.x),i.push(o.y)}return n||r||i.push("L"),i.push(e.x),i.push(e.y),i.join(" ")}function lt(t,n,r,e){var i=arguments.length>4&&void 0!==arguments[4]?arguments[4]:1,o=at(t,n,r,e),u=ut(o);try{return u(i)}catch(t){return null}}function ft(t,n,r,e){var i=1-e;return i*i*t+2*i*e*n+e*e*r}function st(t,n,r,e){return 2*(1-e)*(n-t)+2*e*(r-n)}function ct(t,n,r,e){var i=arguments.length>4&&void 0!==arguments[4]&&arguments[4],o=lt(t,n,null,r,e);return o||(o={x:ft(t.x,n.x,r.x,e),y:ft(t.y,n.y,r.y,e)}),i&&(o.a=ht(t,n,r,e)),o}function ht(t,n,r,e){return Math.atan2(st(t.y,n.y,r.y,e),st(t.x,n.x,r.x,e))}function vt(t,n,r,e,i){var o=i*i;return i*o*(e-t+3*(n-r))+3*o*(t+r-2*n)+3*i*(n-t)+t}function yt(t,n,r,e,i){var o=1-i;return 3*(o*o*(n-t)+2*o*i*(r-n)+i*i*(e-r))}function dt(t,n,r,e,i){var o=arguments.length>5&&void 0!==arguments[5]&&arguments[5],u=lt(t,n,r,e,i);return u||(u={x:vt(t.x,n.x,r.x,e.x,i),y:vt(t.y,n.y,r.y,e.y,i)}),o&&(u.a=gt(t,n,r,e,i)),u}function gt(t,n,r,e,i){return Math.atan2(yt(t.y,n.y,r.y,e.y,i),yt(t.x,n.x,r.x,e.x,i))}function pt(t,n,r){return t+(n-t)*r}function mt(t,n,r){var e=arguments.length>3&&void 0!==arguments[3]&&arguments[3],i={x:pt(t.x,n.x,r),y:pt(t.y,n.y,r)};return e&&(i.a=bt(t,n)),i}function bt(t,n){return Math.atan2(n.y-t.y,n.x-t.x)}function wt(t,n,r){var e=arguments.length>3&&void 0!==arguments[3]&&arguments[3];if(kt(n)){if(At(r))return ct(n,r.start,r,t,e)}else if(kt(r)){if(n.end)return ct(n,n.end,r,t,e)}else{if(n.end)return r.start?dt(n,n.end,r.start,r,t,e):ct(n,n.end,r,t,e);if(r.start)return ct(n,r.start,r,t,e)}return mt(n,r,t,e)}function xt(t,n,r){var e=wt(t,n,r,!0);return e.a=function(t){var n=arguments.length>1&&void 0!==arguments[1]&&arguments[1];return n?t+Math.PI:t}(e.a)/h,e}function kt(t){return!t.type||"corner"===t.type}function At(t){return null!=t.start&&!kt(t)}var _t=new rt;var St={f:Q,i:w},Ot={f:Q,i:function(t,n,r){var e=w(t,n,r);return e<=0?0:e>=1?1:e}};function Mt(t,n,r,e,i,o,u,a){return n=function(t,n,r){for(var e,i,o,u=t.length-1,a={},l=0;l<=u;l++)(e=t[l]).e&&(e.e=n(e.e)),e.v&&"g"===(i=e.v).t&&i.r&&(o=r.getElementById(i.r))&&(a[i.r]=o.querySelectorAll("stop"));return a}(t,e,a),function(e){var i,o=r(e,t,jt);return o?"c"===o.t?V(o.v):"g"===o.t?(n[o.r]&&function(t,n){for(var r=0,e=t.length;r<e;r++)t[r].setAttribute("stop-color",V(n[r]))}(n[o.r],o.v),(i=o.r)?"url(#"+i+")":"none"):"none":"none"}}function jt(t,n,r){if(0===t)return n;if(1===t)return r;if(n&&r){var e=n.t;if(e===r.t)switch(n.t){case"c":return{t:e,v:_(t,n.v,r.v)};case"g":if(n.r===r.r)return{t:e,v:S(t,n.v,r.v),r:n.r}}}return b(t,n,r)}var Pt={fill:Mt,"fill-opacity":Ot,stroke:Mt,"stroke-opacity":Ot,"stroke-width":St,"stroke-dashoffset":{f:Q,i:w},"stroke-dasharray":{f:function(t){var n=arguments.length>1&&void 0!==arguments[1]?arguments[1]:" ";return t&&t.length>0&&(t=t.map((function(t){return s(t,4)}))),U(t,n)},i:function(t,n,r){var e,i,o,u=n.length,a=r.length;if(u!==a)if(0===u)n=O(u=a,0);else if(0===a)a=u,r=O(u,0);else{var l=(o=(e=u)*(i=a)/function(t,n){for(var r;n;)r=n,n=t%n,t=r;return t||1}(e,i))<0?-o:o;n=M(n,Math.floor(l/u)),r=M(r,Math.floor(l/a)),u=a=l}for(var f=[],c=0;c<u;c++)f.push(s(x(t,n[c],r[c])));return f}},opacity:Ot,transform:function(n,r,e,i){if(!(n=function(n,r){if(!n||"object"!==t(n))return null;var e=!1;for(var i in n)n.hasOwnProperty(i)&&(n[i]&&n[i].length?(n[i].forEach((function(t){t.e&&(t.e=r(t.e))})),e=!0):delete n[i]);return e?n:null}(n,i)))return null;var o=function(t,i,o){var u=arguments.length>3&&void 0!==arguments[3]?arguments[3]:null;return n[t]?e(i,n[t],o):r&&r[t]?r[t]:u};return r&&r.a&&n.o?function(t){var r=e(t,n.o,xt);return _t.recomposeSelf(r,o("r",t,w,0)+r.a,o("k",t,k),o("s",t,k),o("t",t,k)).toString()}:function(t){return _t.recomposeSelf(o("o",t,wt,null),o("r",t,w,0),o("k",t,k),o("s",t,k),o("t",t,k)).toString()}},r:St,"#size":H,"#radius":G,_:function(t,n){if(Array.isArray(t))for(var r=0;r<t.length;r++)this[t[r]]=n;else this[t]=n}};return function(t){!function(t,n){if("function"!=typeof n&&null!==n)throw new TypeError("Super expression must either be null or a function");t.prototype=Object.create(n&&n.prototype,{constructor:{value:t,writable:!0,configurable:!0}}),n&&o(t,n)}(u,t);var r=a(u);function u(){return n(this,u),r.apply(this,arguments)}return e(u,null,[{key:"build",value:function(t){var n=l(i(u),"build",this).call(this,t,Pt);if(!n)return null;n.el,n.options;var r=n.player;return function(t,n,r){t.play()}(r),r}}]),u}(D)}));
__SVGATOR_PLAYER__.build({"root":"eS2YR3EZILO1","animations":[{"duration":3000,"direction":1,"iterations":0,"fill":1,"alternate":false,"speed":1,"elements":{"eS2YR3EZILO2":{"transform":{"data":{"t":{"x":-256.000625,"y":-360.393005}},"keys":{"o":[{"t":0,"v":{"x":256.000626,"y":362.393005,"type":"corner"}},{"t":1000,"v":{"x":256.000626,"y":371.393005,"type":"corner"}},{"t":2000,"v":{"x":256.000626,"y":354.393005,"type":"corner"}},{"t":3000,"v":{"x":256.000626,"y":362.12471,"type":"corner"}}]}}},"eS2YR3EZILO9":{"transform":{"data":{"o":{"x":249.1073,"y":67.506743,"type":"corner"},"t":{"x":-249.107299,"y":-67.506743}},"keys":{"r":[{"t":0,"v":175},{"t":3000,"v":535}]}}},"eS2YR3EZILO19":{"transform":{"data":{"o":{"x":194.761123,"y":195.175288,"type":"corner"},"t":{"x":-199.10585,"y":-190.514504}},"keys":{"r":[{"t":0,"v":175},{"t":3000,"v":535}]}}}}}],"options":{"start":"load","hover":null,"click":null,"scroll":null,"font":"embed","exportedIds":"unique","svgFormat":"animated","title":"dices"},"animationSettings":{"duration":3000,"direction":1,"iterations":0,"fill":1,"alternate":false,"speed":1}})]]></script></svg>