<svg width="20" height="20" viewBox="0 0 20 20" fill="none" xmlns="http://www.w3.org/2000/svg">
<g clip-path="url(#clip0)">
<path d="M19.0909 12.7273H0.909102C0.409102 12.7273 0 12.3182 0 11.8182V1.81816C0 1.31816 0.409102 0.909058 0.909102 0.909058H19.0909C19.5909 0.909058 20 1.31816 20 1.81816V11.8182C20 12.3182 19.5909 12.7273 19.0909 12.7273Z" fill="#0E9347"/>
<path d="M16.8182 9.09091C15.7727 9.09091 14.8182 9.59091 14.2727 10.4091C13.8182 10.1818 13.3182 10 12.7273 10C11.1364 10 9.81818 11.1818 9.59091 12.7273H19.0909C19.5454 12.7273 19.9091 12.4091 20 11.9545C19.8182 10.3636 18.4545 9.09091 16.8182 9.09091Z" fill="#0D8944"/>
<path d="M17.2727 11.8182H2.72728C2.72728 10.8182 1.90912 10 0.909119 10V3.63637C1.90912 3.63637 2.72728 2.81821 2.72728 1.81821H17.2727C17.2727 2.81821 18.0909 3.63637 19.0909 3.63637V10C18.0909 10 17.2727 10.8182 17.2727 11.8182Z" fill="#3BB54A"/>
<path d="M16.8181 9.0909C15.7727 9.0909 14.8181 9.5909 14.2727 10.4091C13.8181 10.1818 13.3181 10 12.7272 10C11.4545 10 10.3636 10.7273 9.86362 11.8182H17.2727C17.2727 10.8182 18.0455 10.0454 19.0455 10C18.4545 9.45453 17.6818 9.0909 16.8181 9.0909Z" fill="#0E9347"/>
<path d="M9.99998 10.9091C12.0083 10.9091 13.6364 9.0775 13.6364 6.81816C13.6364 4.55882 12.0083 2.72726 9.99998 2.72726C7.99167 2.72726 6.36362 4.55882 6.36362 6.81816C6.36362 9.0775 7.99167 10.9091 9.99998 10.9091Z" fill="#0E9347"/>
<path d="M4.54545 7.72726C5.04754 7.72726 5.45456 7.32024 5.45456 6.81816C5.45456 6.31608 5.04754 5.90906 4.54545 5.90906C4.04337 5.90906 3.63635 6.31608 3.63635 6.81816C3.63635 7.32024 4.04337 7.72726 4.54545 7.72726Z" fill="#0E9347"/>
<path d="M15.4545 7.72726C15.9566 7.72726 16.3636 7.32024 16.3636 6.81816C16.3636 6.31608 15.9566 5.90906 15.4545 5.90906C14.9524 5.90906 14.5454 6.31608 14.5454 6.81816C14.5454 7.32024 14.9524 7.72726 15.4545 7.72726Z" fill="#0E9347"/>
<path d="M10.4545 6.36363H9.54541C9.27268 6.36363 9.09088 6.18179 9.09088 5.9091C9.09088 5.63636 9.27272 5.45457 9.54541 5.45457H10.909C11.1818 5.45457 11.3636 5.27273 11.3636 5.00004C11.3636 4.7273 11.1817 4.5455 10.909 4.5455H10.4545C10.4545 4.27277 10.2727 4.09097 9.99998 4.09097C9.72725 4.09097 9.54545 4.27281 9.54545 4.5455C8.77272 4.5455 8.18182 5.1364 8.18182 5.90914C8.18182 6.68187 8.77272 7.27277 9.54545 7.27277H10.4546C10.7273 7.27277 10.9091 7.45461 10.9091 7.7273C10.9091 8.00004 10.7272 8.18183 10.4546 8.18183H9.09092C8.81819 8.18183 8.63639 8.36367 8.63639 8.63636C8.63639 8.9091 8.81823 9.09089 9.09092 9.09089H9.54545C9.54545 9.36363 9.72729 9.54543 9.99998 9.54543C10.2727 9.54543 10.4545 9.36359 10.4545 9.09089C11.2272 9.09089 11.8181 8.5 11.8181 7.72726C11.8181 6.95453 11.2272 6.36363 10.4545 6.36363Z" fill="#89C763"/>
<path d="M11.8182 16.3637C13.5754 16.3637 15 14.9391 15 13.1818C15 11.4246 13.5754 10 11.8182 10C10.0609 10 8.63632 11.4246 8.63632 13.1818C8.63632 14.9391 10.0609 16.3637 11.8182 16.3637Z" fill="#FFCA5D"/>
<path d="M15.9091 15.4546C17.6664 15.4546 19.0909 14.03 19.0909 12.2728C19.0909 10.5155 17.6664 9.09091 15.9091 9.09091C14.1518 9.09091 12.7273 10.5155 12.7273 12.2728C12.7273 14.03 14.1518 15.4546 15.9091 15.4546Z" fill="#F6B545"/>
<path d="M15.9091 9.09091C14.1364 9.09091 12.7273 10.5 12.7273 12.2728C12.7273 14.0455 14.1364 15.4546 15.9091 15.4546C17.6818 15.4546 19.0909 14.0455 19.0909 12.2728C19.0909 10.5 17.6818 9.09091 15.9091 9.09091ZM15.9091 14.5455C14.6364 14.5455 13.6364 13.5455 13.6364 12.2728C13.6364 11 14.6364 10 15.9091 10C17.1818 10 18.1818 11 18.1818 12.2728C18.1818 13.5455 17.1818 14.5455 15.9091 14.5455Z" fill="#FFCB5B"/>
<path d="M15.9091 15.4091C17.6819 15.4546 19.091 14 19.091 12.2727H19.0455C18.8182 12.2727 18.6364 12.4546 18.591 12.6818C18.5001 13.3182 18.1819 13.9091 17.7273 14.3182C17.3637 14.6818 16.8637 14.9091 16.3182 15C16.0909 15 15.9091 15.1818 15.9091 15.4091Z" fill="#F6B545"/>
<path d="M15.9091 9.13637C14.1364 9.0909 12.7273 10.5455 12.7273 12.2727H12.7727C13 12.2727 13.1818 12.0909 13.2273 11.8636C13.3182 11.2273 13.6364 10.6364 14.0909 10.2273C14.4545 9.86363 14.9545 9.63637 15.5 9.54543C15.7273 9.54547 15.9091 9.36363 15.9091 9.13637Z" fill="#FFE27A"/>
<path d="M13.9545 12.5909C13.9545 11.3182 14.9545 10.3182 16.2273 10.3182C16.7727 10.3182 17.2727 10.5 17.6818 10.8636C17.2273 10.3182 16.6364 10 15.9091 10C14.6364 10 13.6364 11 13.6364 12.2727C13.6364 13 13.9545 13.5909 14.4545 14C14.1364 13.6364 13.9545 13.1364 13.9545 12.5909Z" fill="#F19920"/>
<path d="M17.2727 13.6818C17.2272 13.6818 17.1818 13.6818 17.1364 13.6364C17.0455 13.5455 17.0455 13.4091 17.1364 13.3182C17.4091 13.0455 17.5455 12.6364 17.5455 12.2727C17.5455 12.1364 17.6364 12.0455 17.7727 12.0455C17.9091 12.0455 18 12.1364 18 12.2727C18 12.7727 17.8182 13.2727 17.5 13.6364C17.4091 13.6818 17.3181 13.6818 17.2727 13.6818Z" fill="#FFCB5B"/>
<path d="M15.9091 13.6364C15.6364 13.6364 15.4546 13.4545 15.4546 13.1818V11.3637C15.4546 11.0909 15.6364 10.9091 15.9091 10.9091C16.1818 10.9091 16.3637 11.091 16.3637 11.3637V13.1818C16.3637 13.4545 16.1819 13.6364 15.9091 13.6364Z" fill="#F19920"/>
<path d="M17.5909 14.9545C17.2727 13.8182 16.4545 12.9091 15.4091 12.5C15.2272 11.4545 14.5454 10.5455 13.6818 10C13.1363 10.5909 12.7727 11.3636 12.7727 12.2273C12.7727 14 14.1818 15.4091 15.9545 15.4091C16.5455 15.4545 17.0909 15.2727 17.5909 14.9545Z" fill="#F19920"/>
<path d="M14.4545 14C14.1364 13.5909 13.9091 13.0909 13.9091 12.5455C13.9091 11.9091 14.1818 11.3182 14.6363 10.9091C14.5454 10.7727 14.4545 10.6818 14.3636 10.5909C13.9091 11 13.6363 11.5909 13.6363 12.2728C13.6364 13 13.9545 13.5909 14.4545 14Z" fill="#E78825"/>
<path d="M15.4545 12.5455V13.1818C15.4545 13.4546 15.6364 13.6364 15.9091 13.6364C16.1818 13.6364 16.3636 13.4545 16.3636 13.1818V13.0909C16.0909 12.8636 15.7727 12.6818 15.4545 12.5455Z" fill="#E78825"/>
<path d="M17.5909 14.9545C17.5 14.6364 17.4091 14.3636 17.2273 14.0909C16.8636 14.3636 16.4091 14.5454 15.9091 14.5454C14.6364 14.5454 13.6364 13.5454 13.6364 12.2727C13.6364 11.5909 13.9091 11 14.3636 10.5909C14.1364 10.3636 13.9091 10.1818 13.6364 10.0454C13.0909 10.6363 12.7273 11.409 12.7273 12.2727C12.7273 14.0454 14.1364 15.4545 15.9091 15.4545C16.5455 15.4545 17.0909 15.2727 17.5909 14.9545Z" fill="#F6B545"/>
<path d="M17.4546 14.5455C17.1364 14.7727 16.7273 14.9091 16.3182 15C16.0909 15.0455 15.9091 15.2273 15.9091 15.4545C16.5455 15.4545 17.0909 15.2727 17.5909 14.9545C17.5455 14.8182 17.5 14.6818 17.4546 14.5455Z" fill="#F19920"/>
<path d="M13.6364 10.0455C13.0909 10.6364 12.7273 11.4091 12.7273 12.2727H12.7727C13 12.2727 13.1818 12.0909 13.2273 11.8636C13.3182 11.2273 13.6364 10.6818 14.0454 10.2727C13.9091 10.2273 13.7727 10.1364 13.6364 10.0455Z" fill="#FFCB5B"/>
<path d="M11.8182 16.3637C13.5754 16.3637 15 14.9391 15 13.1818C15 11.4246 13.5754 10 11.8182 10C10.0609 10 8.63632 11.4246 8.63632 13.1818C8.63632 14.9391 10.0609 16.3637 11.8182 16.3637Z" fill="#F6B545"/>
<path d="M11.3636 15.4545C11.3636 15.7727 11.4091 16.0454 11.5 16.3636C11.5909 16.3636 11.7273 16.3636 11.8182 16.3636C13.5909 16.3636 15 14.9545 15 13.1818C15 12.8636 14.9545 12.5909 14.8636 12.2727C14.7728 12.2727 14.6364 12.2727 14.5455 12.2727C12.7728 12.2727 11.3636 13.6818 11.3636 15.4545Z" fill="#F19920"/>
<path d="M11.8182 10C10.0454 10 8.63632 11.4091 8.63632 13.1818C8.63632 14.9546 10.0454 16.3637 11.8182 16.3637C13.5909 16.3637 15 14.9545 15 13.1818C15 11.4091 13.5909 10 11.8182 10ZM11.8182 15.4545C10.5454 15.4545 9.54542 14.4545 9.54542 13.1818C9.54542 11.9091 10.5454 10.9091 11.8182 10.9091C13.0909 10.9091 14.0909 11.9091 14.0909 13.1818C14.0909 14.4545 13.0909 15.4545 11.8182 15.4545Z" fill="#FFCB5B"/>
<path d="M11.8182 16.3182C13.5909 16.3636 15 14.9091 15 13.1818H14.9545C14.7273 13.1818 14.5454 13.3637 14.5 13.5909C14.4091 14.2273 14.0909 14.8182 13.6364 15.2273C13.2727 15.5909 12.7727 15.8182 12.2273 15.9091C12 15.9091 11.8182 16.0909 11.8182 16.3182Z" fill="#F6B545"/>
<path d="M11.8182 10.0455C10.0454 10 8.63632 11.4546 8.63632 13.1818H8.68179C8.90906 13.1818 9.09089 13 9.13632 12.7727C9.22722 12.1364 9.54542 11.5455 9.99995 11.1364C10.3636 10.7727 10.8636 10.5455 11.4091 10.4545C11.6364 10.4545 11.8182 10.2727 11.8182 10.0455Z" fill="#FFE27A"/>
<path d="M9.86364 13.5C9.86364 12.2273 10.8636 11.2273 12.1364 11.2273C12.6818 11.2273 13.1818 11.4091 13.5909 11.7727C13.1364 11.2273 12.5454 10.9091 11.8182 10.9091C10.5454 10.9091 9.54544 11.9091 9.54544 13.1818C9.54544 13.9091 9.86361 14.5 10.3636 14.9091C10.0455 14.5455 9.86364 14.0455 9.86364 13.5Z" fill="#F19920"/>
<path d="M13.1818 14.5909C13.1364 14.5909 13.0909 14.5909 13.0455 14.5454C12.9546 14.4545 12.9546 14.3182 13.0455 14.2273C13.3182 13.9545 13.4546 13.5454 13.4546 13.1818C13.4546 13.0454 13.5455 12.9545 13.6818 12.9545C13.8182 12.9545 13.9091 13.0454 13.9091 13.1818C13.9091 13.6818 13.7273 14.1818 13.4091 14.5454C13.3182 14.5909 13.2273 14.5909 13.1818 14.5909Z" fill="#FFCB5B"/>
<path d="M11.8182 14.5455C11.5454 14.5455 11.3636 14.3636 11.3636 14.0909V12.2728C11.3636 12 11.5455 11.8182 11.8182 11.8182C12.0909 11.8182 12.2727 12.0001 12.2727 12.2728V14.0909C12.2727 14.3636 12.0909 14.5455 11.8182 14.5455Z" fill="#F19920"/>
<path d="M13.9091 12.3182C14 12.5909 14.0909 12.8636 14.0909 13.1818C14.0909 14.4545 13.0909 15.4545 11.8182 15.4545C11.6818 15.4545 11.5 15.4545 11.3637 15.4091V15.4545C11.3637 15.7727 11.4091 16.0454 11.5 16.3636C11.5909 16.3636 11.7273 16.3636 11.8182 16.3636C13.5909 16.3636 15 14.9545 15 13.1818C15 12.8636 14.9546 12.5909 14.8637 12.2727C14.7728 12.2727 14.6364 12.2727 14.5455 12.2727C14.3182 12.2727 14.1364 12.2727 13.9091 12.3182Z" fill="#F6B545"/>
<path d="M14.0909 19.0909C15.8482 19.0909 17.2727 17.6664 17.2727 15.9091C17.2727 14.1518 15.8482 12.7273 14.0909 12.7273C12.3336 12.7273 10.9091 14.1518 10.9091 15.9091C10.9091 17.6664 12.3336 19.0909 14.0909 19.0909Z" fill="#F6B545"/>
<path d="M14.0909 12.7273C12.3182 12.7273 10.9091 14.1364 10.9091 15.9091C10.9091 17.6818 12.3182 19.0909 14.0909 19.0909C15.8636 19.0909 17.2727 17.6818 17.2727 15.9091C17.2727 14.1364 15.8636 12.7273 14.0909 12.7273ZM14.0909 18.1818C12.8182 18.1818 11.8182 17.1818 11.8182 15.9091C11.8182 14.6364 12.8182 13.6364 14.0909 13.6364C15.3636 13.6364 16.3636 14.6364 16.3636 15.9091C16.3636 17.1818 15.3636 18.1818 14.0909 18.1818Z" fill="#FFCB5B"/>
<path d="M14.0909 19.0455C15.8636 19.0909 17.2727 17.6364 17.2727 15.9091H17.2272C17 15.9091 16.8181 16.0909 16.7727 16.3182C16.6818 16.9546 16.3636 17.5455 15.9091 17.9546C15.5455 18.3182 15.0455 18.5455 14.5 18.6364C14.2727 18.6364 14.0909 18.8182 14.0909 19.0455Z" fill="#F6B545"/>
<path d="M14.0909 12.7727C12.3182 12.7273 10.9091 14.1818 10.9091 15.9091H10.9545C11.1818 15.9091 11.3636 15.7273 11.4091 15.5C11.5 14.8636 11.8182 14.2727 12.2727 13.8636C12.6363 13.5 13.1363 13.2727 13.6818 13.1818C13.9091 13.1818 14.0909 13 14.0909 12.7727Z" fill="#FFE27A"/>
<path d="M12.1364 16.2273C12.1364 14.9545 13.1364 13.9545 14.4091 13.9545C14.9546 13.9545 15.4546 14.1364 15.8636 14.5C15.4091 13.9545 14.8182 13.6364 14.0909 13.6364C12.8182 13.6364 11.8182 14.6364 11.8182 15.9091C11.8182 16.6364 12.1363 17.2273 12.6363 17.6364C12.3182 17.2727 12.1364 16.7727 12.1364 16.2273Z" fill="#F19920"/>
<path d="M15.4545 17.3182C15.409 17.3182 15.3636 17.3182 15.3181 17.2727C15.2272 17.1818 15.2272 17.0454 15.3181 16.9545C15.5909 16.6818 15.7273 16.2727 15.7273 15.9091C15.7273 15.7727 15.8181 15.6818 15.9545 15.6818C16.0909 15.6818 16.1818 15.7727 16.1818 15.9091C16.1818 16.4091 15.9999 16.9091 15.6818 17.2727C15.5909 17.3182 15.5 17.3182 15.4545 17.3182Z" fill="#FFCB5B"/>
<path d="M14.0909 17.2727C13.8181 17.2727 13.6364 17.0909 13.6364 16.8182V15C13.6364 14.7273 13.8182 14.5455 14.0909 14.5455C14.3636 14.5455 14.5454 14.7273 14.5454 15V16.8182C14.5455 17.0909 14.3636 17.2727 14.0909 17.2727Z" fill="#F19920"/>
</g>
<defs>
<clipPath id="clip0">
<rect width="20" height="20" fill="white"/>
</clipPath>
</defs>
</svg>
