<svg width="29" height="28" viewBox="0 0 29 28" fill="none" xmlns="http://www.w3.org/2000/svg">
<path d="M11.7812 8.1655H9.96875V4.6655C9.96878 4.52144 10.0056 4.37962 10.0761 4.25262C10.1465 4.12562 10.2483 4.01738 10.3725 3.9375L14.4506 1.3125L15.4556 2.7685L11.7812 5.13363V8.1655Z" fill="#F9E109"/>
<path d="M15.4561 2.76937L11.7812 5.13187V8.16374H9.96875V4.66374C9.96879 4.51998 10.0056 4.37845 10.076 4.25175C10.1463 4.12504 10.248 4.01709 10.372 3.93749L10.8297 3.63999C11.1946 3.75637 11.583 3.7873 11.9627 3.73025C12.3424 3.6732 12.7027 3.5298 13.0137 3.31187L14.9123 1.97749L15.4561 2.76937Z" fill="#FCBC04"/>
<path d="M15.8594 26.6875H5.89062L4.07812 11.375H17.6719L15.8594 26.6875Z" fill="#F8664F"/>
<path d="M4.98438 9.625H16.7656C17.006 9.625 17.2365 9.71719 17.4064 9.88128C17.5764 10.0454 17.6719 10.2679 17.6719 10.5V11.375H4.07812V10.5C4.07812 10.2679 4.1736 10.0454 4.34356 9.88128C4.51351 9.71719 4.74402 9.625 4.98438 9.625Z" fill="#84D2F4"/>
<path d="M7.25 7.875H14.5C14.7404 7.875 14.9709 7.96719 15.1408 8.13128C15.3108 8.29538 15.4062 8.51794 15.4062 8.75V9.625H6.34375V8.75C6.34375 8.51794 6.43923 8.29538 6.60918 8.13128C6.77914 7.96719 7.00965 7.875 7.25 7.875Z" fill="#84D2F4"/>
<path d="M17.5178 12.6875H7.25C9.86218 15.2094 13.3226 16.7457 17.0058 17.0188L15.8594 26.6875H5.89062L4.07812 11.375H17.6719L17.5178 12.6875Z" fill="#CC5144"/>
<path d="M17.6719 10.5V11.375H4.07812V10.5C4.07884 10.2681 4.17455 10.046 4.34435 9.88205C4.51415 9.7181 4.74424 9.62569 4.98438 9.625C4.98509 9.85685 5.0808 10.079 5.2506 10.243C5.4204 10.4069 5.65049 10.4993 5.89062 10.5H17.6719Z" fill="#57B7EB"/>
<path d="M15.4062 8.75V9.625H6.34375V8.75C6.34447 8.51815 6.44018 8.29599 6.60998 8.13205C6.77978 7.9681 7.00987 7.87569 7.25 7.875C7.25072 8.10685 7.34643 8.32901 7.51623 8.49295C7.68603 8.6569 7.91612 8.74931 8.15625 8.75H15.4062Z" fill="#57B7EB"/>
<path d="M20.3906 10.0625L19.4844 21L19.0312 25.8125L21.2969 26.25L22.6562 10.5L21.2969 9.8L20.3906 10.0625Z" fill="#E59730"/>
<path d="M17.6719 12.25L18.5781 22.75H21.2969L20.3906 11.8125L19.0312 10.5L17.6719 12.25Z" fill="#FCBC04"/>
<path d="M21.2969 22.75H18.5781L17.6719 12.25L18.2066 11.5631L19.0312 17.9375H19.4844L19.9783 15.155L20.3906 14.875L20.667 15.1419L21.2969 22.75Z" fill="#E59730"/>
<path d="M16.7656 13.5625L15.423 13.1171L14.9531 14.4375L17.2188 21.4375L19.3335 20.5625L16.7656 13.5625Z" fill="#F9E109"/>
<path d="M19.3348 20.5625L17.2188 21.4375L14.9531 14.4375L15.4153 13.1469L16.2445 15.5531C16.7283 16.9579 17.6182 18.1996 18.8092 19.1319L19.3348 20.5625Z" fill="#FCBC04"/>
<path d="M24.9219 10.5L23.0736 18.8125H24.9219L26.2812 12.6875L24.9219 10.5Z" fill="#F9E109"/>
<path d="M24.853 14.5797L25.578 11.5531L24.9219 10.5L23.0736 18.8125H24.9219L25.5395 16.0304C25.2759 15.895 25.0659 15.6795 24.9418 15.4173C24.8177 15.1551 24.7865 14.8607 24.853 14.5797Z" fill="#FCBC04"/>
<path d="M12.2344 13.125L15.4062 21.4375L17.2188 21L14.0469 13.125H12.2344Z" fill="#F9E109"/>
<path d="M12.2344 13.125L15.4062 21.4375L16.3125 21.2188L13.0763 13.125H12.2344Z" fill="#FCBC04"/>
<path d="M22.2031 11.8125L20.8438 22.3125L22.6562 21.875L24.4688 12.6875L22.2031 11.8125Z" fill="#F9E109"/>
<path d="M23.4356 17.9244L22.6562 21.875L20.8438 22.3125L22.2031 11.8125L23.0822 12.1538L22.7197 17.0669C22.7056 17.2705 22.7714 17.4718 22.9041 17.6307C23.0367 17.7896 23.2265 17.8945 23.4356 17.9244Z" fill="#FCBC04"/>
<path d="M21.75 22.75H19.9375L20.3906 14.875L22.2031 15.3125L21.75 22.75Z" fill="#F9E109"/>
<path d="M21.1754 18.6231L21.2778 15.0894L20.3906 14.875L19.9375 22.75H21.75L21.9281 19.8301C21.6968 19.7188 21.5031 19.5462 21.3698 19.3324C21.2365 19.1186 21.1691 18.8725 21.1754 18.6231Z" fill="#FCBC04"/>
<path d="M24.0156 17.0625C24.0156 18.7539 22.19 20.125 19.9375 20.125C17.685 20.125 15.8594 18.7539 15.8594 17.0625H13.5938L14.9531 26.6875H24.9219L26.2812 17.0625H24.0156Z" fill="#84D2F4"/>
<path d="M25.1711 24.9375L24.9219 26.6875H14.9531L13.5938 17.0625H15.8594C15.8673 17.4327 15.9547 17.7973 16.1162 18.1332C16.2776 18.4691 16.5096 18.7689 16.7973 19.0137C17.0625 20.6642 17.9305 22.1687 19.2444 23.2551C20.5582 24.3416 22.2314 24.9383 23.9612 24.9375H25.1711Z" fill="#57B7EB"/>
<path d="M19.9375 24.9375C20.6883 24.9375 21.2969 24.3499 21.2969 23.625C21.2969 22.9001 20.6883 22.3125 19.9375 22.3125C19.1867 22.3125 18.5781 22.9001 18.5781 23.625C18.5781 24.3499 19.1867 24.9375 19.9375 24.9375Z" fill="#F9E109"/>
<path d="M21.0658 24.3556C20.9034 24.589 20.6676 24.7658 20.3933 24.8601C20.1189 24.9544 19.8205 24.9611 19.5419 24.8793C19.2633 24.7974 19.0193 24.6314 18.8458 24.4056C18.6723 24.1798 18.5784 23.9062 18.5781 23.625C18.5772 23.3571 18.6627 23.0957 18.8228 22.8769C19.467 23.5022 20.2281 24.004 21.0658 24.3556Z" fill="#FCBC04"/>
<path d="M13.5938 22.3125H5.4375C4.9568 22.3125 4.49578 22.1281 4.15587 21.7999C3.81596 21.4717 3.625 21.0266 3.625 20.5625C3.625 20.0984 3.81596 19.6533 4.15587 19.3251C4.49578 18.9969 4.9568 18.8125 5.4375 18.8125H13.5938C14.0745 18.8125 14.5355 18.9969 14.8754 19.3251C15.2153 19.6533 15.4062 20.0984 15.4062 20.5625C15.4062 21.0266 15.2153 21.4717 14.8754 21.7999C14.5355 22.1281 14.0745 22.3125 13.5938 22.3125Z" fill="#F89C8D"/>
<path d="M14.5 21.4375C14.7566 21.4373 15.01 21.3836 15.2431 21.28C15.1556 21.4742 15.0311 21.6508 14.8761 21.8006C14.5352 22.1277 14.0743 22.3117 13.5937 22.3125H5.4375C5.07881 22.3128 4.72811 22.2103 4.42978 22.018C4.13145 21.8257 3.89892 21.5523 3.76162 21.2324C3.62432 20.9124 3.58842 20.5604 3.65848 20.2207C3.72853 19.8811 3.90138 19.5691 4.15515 19.3244C4.31032 19.1747 4.49323 19.0545 4.69437 18.97C4.92744 18.8664 5.18093 18.8127 5.4375 18.8125H13.5937C14.0343 18.8131 14.4596 18.9686 14.79 19.25C15.0156 19.4382 15.1873 19.6792 15.2884 19.95C15.2055 20.0945 15.084 20.2149 14.9366 20.2987C14.7892 20.3826 14.6212 20.4268 14.4502 20.4269C14.3009 20.4268 14.1537 20.3939 14.0197 20.3306C13.8877 20.2659 13.7418 20.2322 13.5937 20.2322C13.4457 20.2322 13.2998 20.2659 13.1678 20.3306L12.2072 20.7944C12.0752 20.8591 11.9293 20.8928 11.7812 20.8928C11.6332 20.8928 11.4873 20.8591 11.3553 20.7944L10.3947 20.3306C10.2627 20.2659 10.1168 20.2322 9.96875 20.2322C9.82072 20.2322 9.67479 20.2659 9.54281 20.3306L8.58218 20.7944C8.4502 20.8591 8.30427 20.8928 8.15625 20.8928C8.00822 20.8928 7.86229 20.8591 7.73031 20.7944L6.76968 20.3306C6.6377 20.2659 6.49177 20.2322 6.34375 20.2322C6.19572 20.2322 6.04979 20.2659 5.91781 20.3306L5.18828 20.685C5.10405 20.724 5.01602 20.7548 4.92547 20.7769C5.09483 20.9833 5.31043 21.1499 5.55607 21.2644C5.80171 21.3788 6.07101 21.438 6.34375 21.4375H14.5Z" fill="#F8664F"/>
<path d="M2.71875 24.0625H16.3125V24.9375C16.3125 25.4016 16.1215 25.8467 15.7816 26.1749C15.4417 26.5031 14.9807 26.6875 14.5 26.6875H4.53125C4.05055 26.6875 3.58953 26.5031 3.24962 26.1749C2.90971 25.8467 2.71875 25.4016 2.71875 24.9375V24.0625Z" fill="#FCBC04"/>
<path d="M10.7844 24.0625L10.4219 24.5L10.0594 24.0625H10.7844Z" fill="#E59730"/>
<path d="M10.7844 24.0625L10.4219 24.5L10.0594 24.0625H10.7844Z" fill="#E59730"/>
<path d="M14.5 24.0625H4.53125C4.2909 24.0625 4.06039 23.9703 3.89043 23.8062C3.72048 23.6421 3.625 23.4196 3.625 23.1875C3.625 22.9554 3.72048 22.7329 3.89043 22.5688C4.06039 22.4047 4.2909 22.3125 4.53125 22.3125H14.5C14.7404 22.3125 14.9709 22.4047 15.1408 22.5688C15.3108 22.7329 15.4062 22.9554 15.4062 23.1875C15.4062 23.4196 15.3108 23.6421 15.1408 23.8062C14.9709 23.9703 14.7404 24.0625 14.5 24.0625Z" fill="#CC5144"/>
<path d="M10.875 24.5L9.0625 22.3125H12.6875L10.875 24.5Z" fill="#F7F754"/>
<path d="M10.7196 22.7815L10.3313 22.3125H9.0625L10.875 24.5L11.9013 23.2614C11.6786 23.2825 11.4539 23.2496 11.2476 23.1658C11.0412 23.0821 10.8598 22.95 10.7196 22.7815Z" fill="#F9E109"/>
<path d="M3.17188 18.8125C3.17181 19.0754 3.24762 19.3332 3.39081 19.5568C3.534 19.7804 3.7389 19.9611 3.98252 20.0786L4.3287 20.2457C4.53225 20.3441 4.75674 20.3954 4.98438 20.3954C5.21201 20.3954 5.4365 20.3441 5.64005 20.2457L6.36913 19.8957C6.50195 19.8317 6.64839 19.7983 6.79688 19.7983C6.94536 19.7983 7.0918 19.8317 7.22463 19.8957L8.18163 20.3577C8.31445 20.4218 8.46089 20.4552 8.60938 20.4552C8.75786 20.4552 8.9043 20.4218 9.03713 20.3577L9.99413 19.8957C10.1269 19.8317 10.2734 19.7983 10.4219 19.7983C10.5704 19.7983 10.7168 19.8317 10.8496 19.8957L11.8066 20.3577C11.9394 20.4218 12.0859 20.4552 12.2344 20.4552C12.3829 20.4552 12.5293 20.4218 12.6621 20.3577L13.6191 19.8957C13.7519 19.8317 13.8984 19.7983 14.0469 19.7983C14.1954 19.7983 14.3418 19.8317 14.4746 19.8957C14.6206 19.9662 14.7829 19.9994 14.9459 19.9922C15.1089 19.9851 15.2674 19.9378 15.4061 19.8548C15.5449 19.7719 15.6594 19.656 15.7387 19.5183C15.8181 19.3806 15.8596 19.2256 15.8594 19.068V18.8125H3.17188Z" fill="#C4F236"/>
<path d="M11.7812 14.4375H7.25C6.04824 14.4375 4.8957 14.8984 4.04592 15.7189C3.19615 16.5394 2.71875 17.6522 2.71875 18.8125H16.3125C16.3125 17.6522 15.8351 16.5394 14.9853 15.7189C14.1356 14.8984 12.983 14.4375 11.7812 14.4375Z" fill="#FCBC04"/>
<path d="M16.3125 18.8125H2.71875C2.71916 17.8569 3.04365 16.9276 3.64261 16.1668C4.24157 15.406 5.08206 14.8555 6.03562 14.5994C6.27112 15.4324 6.78367 16.1675 7.49436 16.6916C8.20504 17.2157 9.07446 17.4998 9.96875 17.5H16.1041C16.2429 17.9246 16.3132 18.3673 16.3125 18.8125Z" fill="#E59730"/>
<path d="M16.3125 24.9375C16.3125 25.4016 16.1215 25.8467 15.7816 26.1749C15.4417 26.5031 14.9807 26.6875 14.5 26.6875H4.53125C4.05055 26.6875 3.58953 26.5031 3.24962 26.1749C2.90971 25.8467 2.71875 25.4016 2.71875 24.9375V24.0625H3.68391C3.78374 24.4382 4.01028 24.7712 4.3278 25.0088C4.64532 25.2465 5.03575 25.3753 5.4375 25.375H14.9531C15.4437 25.3769 15.9212 25.2232 16.3125 24.9375Z" fill="#E59730"/>
<path d="M15.8594 18.8125V19.0663C15.8613 19.1282 15.8537 19.1902 15.8367 19.25H3.94219C4.07324 19.4151 4.24235 19.5484 4.43609 19.6394L4.78047 19.81C4.98489 19.9071 5.20967 19.9576 5.4375 19.9576C5.66533 19.9576 5.89011 19.9071 6.09453 19.81L6.82406 19.4556C6.95604 19.3909 7.10198 19.3572 7.25 19.3572C7.39802 19.3572 7.54396 19.3909 7.67594 19.4556L8.63656 19.9194C8.76854 19.9841 8.91448 20.0178 9.0625 20.0178C9.21052 20.0178 9.35646 19.9841 9.48844 19.9194L10.4491 19.4556C10.581 19.3909 10.727 19.3572 10.875 19.3572C11.023 19.3572 11.169 19.3909 11.3009 19.4556L12.2616 19.9194C12.3935 19.9841 12.5395 20.0178 12.6875 20.0178C12.8355 20.0178 12.9815 19.9841 13.1134 19.9194L14.0741 19.4556C14.206 19.3909 14.352 19.3572 14.5 19.3572C14.648 19.3572 14.794 19.3909 14.9259 19.4556C15.0566 19.5188 15.2007 19.5521 15.3468 19.5528C15.493 19.5536 15.6374 19.5218 15.7687 19.46C15.691 19.6181 15.5684 19.7518 15.4153 19.8455C15.2621 19.9391 15.0846 19.989 14.9033 19.9894C14.7541 19.9893 14.6068 19.9564 14.4728 19.8931C14.3408 19.8284 14.1949 19.7947 14.0469 19.7947C13.8989 19.7947 13.7529 19.8284 13.6209 19.8931L12.6603 20.3569C12.5283 20.4216 12.3824 20.4553 12.2344 20.4553C12.0864 20.4553 11.9404 20.4216 11.8084 20.3569L10.8478 19.8931C10.7158 19.8284 10.5699 19.7947 10.4219 19.7947C10.2739 19.7947 10.1279 19.8284 9.99594 19.8931L9.03531 20.3569C8.90333 20.4216 8.7574 20.4553 8.60938 20.4553C8.46135 20.4553 8.31542 20.4216 8.18344 20.3569L7.22281 19.8931C7.09083 19.8284 6.9449 19.7947 6.79688 19.7947C6.64885 19.7947 6.50292 19.8284 6.37094 19.8931L5.64141 20.2475C5.43699 20.3446 5.2122 20.3951 4.98438 20.3951C4.75655 20.3951 4.53176 20.3446 4.32734 20.2475L3.98297 20.0769C3.73874 19.9606 3.53324 19.7804 3.38984 19.5569C3.24645 19.3333 3.17093 19.0754 3.17188 18.8125H15.8594Z" fill="#A1D51C"/>
<path d="M10.4219 16.625C10.6721 16.625 10.875 16.4291 10.875 16.1875C10.875 15.9459 10.6721 15.75 10.4219 15.75C10.1716 15.75 9.96875 15.9459 9.96875 16.1875C9.96875 16.4291 10.1716 16.625 10.4219 16.625Z" fill="#F9E109"/>
<path d="M8.60938 16.1875C8.85963 16.1875 9.0625 15.9916 9.0625 15.75C9.0625 15.5084 8.85963 15.3125 8.60938 15.3125C8.35912 15.3125 8.15625 15.5084 8.15625 15.75C8.15625 15.9916 8.35912 16.1875 8.60938 16.1875Z" fill="#F9E109"/>
<path d="M7.25 17.0625C7.50025 17.0625 7.70312 16.8666 7.70312 16.625C7.70312 16.3834 7.50025 16.1875 7.25 16.1875C6.99975 16.1875 6.79688 16.3834 6.79688 16.625C6.79688 16.8666 6.99975 17.0625 7.25 17.0625Z" fill="#F9E109"/>
<path d="M14.0469 17.0625C14.2971 17.0625 14.5 16.8666 14.5 16.625C14.5 16.3834 14.2971 16.1875 14.0469 16.1875C13.7966 16.1875 13.5938 16.3834 13.5938 16.625C13.5938 16.8666 13.7966 17.0625 14.0469 17.0625Z" fill="#F9E109"/>
<path d="M5.4375 16.625C5.68775 16.625 5.89062 16.4291 5.89062 16.1875C5.89062 15.9459 5.68775 15.75 5.4375 15.75C5.18725 15.75 4.98438 15.9459 4.98438 16.1875C4.98438 16.4291 5.18725 16.625 5.4375 16.625Z" fill="#FCBC04"/>
<path d="M12.2344 16.1875C12.4846 16.1875 12.6875 15.9916 12.6875 15.75C12.6875 15.5084 12.4846 15.3125 12.2344 15.3125C11.9841 15.3125 11.7812 15.5084 11.7812 15.75C11.7812 15.9916 11.9841 16.1875 12.2344 16.1875Z" fill="#F9E109"/>
<path d="M7.66235 16.8087C7.61936 16.8999 7.54531 16.974 7.45255 17.0187C7.3598 17.0635 7.25395 17.0762 7.15268 17.0547C7.05141 17.0332 6.96084 16.9788 6.89609 16.9006C6.83133 16.8224 6.79632 16.7251 6.79688 16.625C6.79761 16.5535 6.8161 16.4832 6.85079 16.42C6.88548 16.3568 6.93537 16.3026 6.99625 16.2619H7.00078C7.19969 16.4672 7.42157 16.6506 7.66235 16.8087Z" fill="#FCBC04"/>
</svg>
