<svg width="20" height="20" viewBox="0 0 20 20" fill="none" xmlns="http://www.w3.org/2000/svg">
<path d="M18.3432 3.1536C16.1682 1.08391 12.6281 1.08391 10.4524 3.15313L10 3.58281L9.54813 3.15332C7.37223 1.08383 3.83258 1.08407 1.65668 3.15332C0.58832 4.16949 0 5.51734 0 6.9482C0 8.37953 0.58832 9.72715 1.65684 10.7437L9.51695 18.206C9.65215 18.3346 9.82621 18.3987 10 18.3987C10.1738 18.3987 10.3476 18.3344 10.483 18.2057L18.3432 10.7437C19.4114 9.72738 20 8.37957 20 6.94844C20 5.51734 19.4114 4.16973 18.3432 3.1536ZM17.3761 9.72621L10 16.7293L2.6241 9.72644C1.83695 8.97793 1.40352 7.99125 1.40352 6.94844C1.40352 5.90563 1.83695 4.91895 2.6241 4.17043C3.44516 3.38914 4.52352 2.99875 5.60211 2.99875C6.68094 2.99875 7.75977 3.38961 8.58082 4.1709L9.51648 5.05957C9.78734 5.31711 10.2124 5.31711 10.4833 5.05957L11.4192 4.17043C13.0615 2.60809 15.7336 2.60809 17.3759 4.17043C18.1628 4.91899 18.5965 5.90563 18.5965 6.94844C18.5965 7.99125 18.1628 8.97769 17.3761 9.72621Z" fill="white"/>
</svg>
