<svg width="25" height="25" viewBox="0 0 25 25" fill="none" xmlns="http://www.w3.org/2000/svg">
<path d="M23.4339 8.06285H1.50986V23.201H23.4339V8.06285Z" fill="#FFCE54"/>
<path d="M20.4182 13.2295H15.8541V22.8206H20.4182V13.2295Z" fill="#4FC2E9"/>
<path d="M23.1818 1.79898H1.73335V4.96368H23.1818V1.79898Z" fill="#E6E9ED"/>
<path d="M13.5161 13.2827H4.11985V19.5471H13.5161V13.2827Z" fill="#4FC2E9"/>
<path d="M3.59796 12.7609V20.0691H14.0381V12.7609H3.59796ZM12.9936 19.0247H4.6417V13.8046H12.9936V19.0247Z" fill="#F5F7FA"/>
<path d="M15.0818 12.7609V23.201H21.3455V12.7609H15.0818ZM20.3018 22.1573H16.1255V13.8046H20.3018V22.1573Z" fill="#F5F7FA"/>
<path d="M11.9461 16.4147C11.8011 16.4147 11.6714 16.4734 11.5768 16.568L10.5331 17.6117C10.4385 17.7063 10.3798 17.8367 10.3798 17.9809C10.3798 18.2693 10.614 18.5028 10.9024 18.5028C11.0459 18.5028 11.1763 18.4448 11.2709 18.3502L12.3154 17.3058C12.4092 17.2119 12.468 17.0807 12.468 16.9372C12.468 16.6489 12.2345 16.4147 11.9461 16.4147Z" fill="#3BAFDA"/>
<path d="M12.3154 15.2183C12.4092 15.1237 12.468 14.9933 12.468 14.8491C12.468 14.5607 12.2345 14.3273 11.9461 14.3273C11.8011 14.3273 11.6714 14.3853 11.5768 14.4798L8.44494 17.6117C8.35031 17.7063 8.29157 17.8367 8.29157 17.9809C8.29157 18.2693 8.52502 18.5028 8.81346 18.5028C8.95843 18.5028 9.08812 18.4448 9.18271 18.3502L12.3154 15.2183Z" fill="#3BAFDA"/>
<path d="M20.4178 17.4591H15.6036C15.3152 17.4591 15.0817 17.6925 15.0817 17.981C15.0817 18.2694 15.3152 18.5029 15.6036 18.5029H20.4178C20.7062 18.5029 20.9397 18.2694 20.9397 17.981C20.9397 17.6925 20.7062 17.4591 20.4178 17.4591Z" fill="#F5F7FA"/>
<path d="M22.0169 11.7172C23.6641 11.7172 25 10.3813 25 8.73411C25 8.57541 24.987 8.41974 24.9634 8.26798L24.9466 8.17413C24.9436 8.15963 24.9413 8.14512 24.939 8.13062L23.2101 3.88713H18.9148L19.6304 10.524L19.7311 10.6506C20.279 11.3022 21.0991 11.7172 22.0169 11.7172Z" fill="#DA4453"/>
<path d="M14.6195 3.88713L14.8574 10.524C15.4022 11.248 16.2689 11.7172 17.2439 11.7172C18.2205 11.7172 19.0857 11.248 19.6304 10.524L18.9148 3.88713H14.6195Z" fill="#E6E9ED"/>
<path d="M2.98232 11.7172C1.33515 11.7172 0 10.3813 0 8.73411C0 8.57541 0.0121586 8.41974 0.0365734 8.26798H0.0357921L0.053322 8.17413C0.055617 8.15963 0.057912 8.14512 0.0609394 8.13062L1.78975 3.88713H6.08437L5.36794 10.524L5.26799 10.6506C4.72105 11.3022 3.90012 11.7172 2.98232 11.7172Z" fill="#DA4453"/>
<path d="M10.3798 3.88713L10.1409 10.524C9.59698 11.248 8.73103 11.7172 7.75449 11.7172C6.77941 11.7172 5.91273 11.248 5.36799 10.524L6.08442 3.88713H10.3798Z" fill="#E6E9ED"/>
<path d="M10.3241 3.88713L10.086 10.524C10.6292 11.248 11.496 11.7172 12.4717 11.7172C13.4475 11.7172 14.3142 11.248 14.8574 10.524L14.6194 3.88713H10.3241Z" fill="#DA4453"/>
<path d="M0.057912 8.14664C0.0563982 8.15582 0.0548845 8.16495 0.053322 8.17408L0.0357921 8.26793H0.0365734C0.0121586 8.41974 0 8.57536 0 8.73406C0 10.3812 1.33515 11.7172 2.98232 11.7172C3.90012 11.7172 4.72105 11.3021 5.26808 10.6506L5.36804 10.5239L5.62518 8.14659H0.057912V8.14664Z" fill="#ED5564"/>
<path d="M5.62513 8.14664L5.36799 10.524C5.91273 11.248 6.77941 11.7172 7.75449 11.7172C8.73103 11.7172 9.59698 11.248 10.1409 10.524L10.2264 8.14664H5.62513Z" fill="#F5F7FA"/>
<path d="M10.1715 8.14664L10.086 10.524C10.6292 11.248 11.496 11.7172 12.4717 11.7172C13.4475 11.7172 14.3142 11.248 14.8574 10.524L14.772 8.14664H10.1715Z" fill="#ED5564"/>
<path d="M14.772 8.14664L14.8574 10.524C15.4022 11.248 16.2689 11.7172 17.2439 11.7172C18.2205 11.7172 19.0857 11.248 19.6304 10.524L19.374 8.14664H14.772Z" fill="#F5F7FA"/>
<path d="M24.9634 8.26798L24.9466 8.17412C24.9451 8.16494 24.9428 8.15581 24.9413 8.14668H19.374L19.6304 10.524L19.7311 10.6507C20.2789 11.3022 21.0991 11.7173 22.0169 11.7173C23.6641 11.7173 25 10.3814 25 8.73415C25 8.57541 24.9871 8.41974 24.9634 8.26798Z" fill="#ED5564"/>
</svg>
