<svg width="13" height="13" viewBox="0 0 13 13" fill="none" xmlns="http://www.w3.org/2000/svg">
<path d="M11.5286 4.48271L8.30524 4.01425L6.86432 1.09306C6.82497 1.01308 6.76022 0.948335 6.68024 0.90898C6.47966 0.809956 6.23591 0.892476 6.13561 1.09306L4.6947 4.01425L1.47136 4.48271C1.38249 4.49541 1.30124 4.5373 1.23903 4.60078C1.16383 4.67807 1.12239 4.78207 1.12382 4.8899C1.12524 4.99774 1.16942 5.1006 1.24665 5.17588L3.57878 7.44961L3.0278 10.6603C3.01488 10.7349 3.02315 10.8118 3.05166 10.882C3.08017 10.9522 3.12779 11.013 3.18912 11.0576C3.25045 11.1021 3.32303 11.1286 3.39863 11.134C3.47424 11.1394 3.54984 11.1235 3.61686 11.0881L6.49997 9.57226L9.38307 11.0881C9.46178 11.13 9.55319 11.1439 9.64079 11.1287C9.86169 11.0906 10.0102 10.8811 9.97214 10.6603L9.42116 7.44961L11.7533 5.17588C11.8168 5.11367 11.8587 5.03242 11.8714 4.94355C11.9056 4.72138 11.7507 4.51572 11.5286 4.48271V4.48271Z" fill="white"/>
</svg>
