<svg width="20" height="20" viewBox="0 0 20 20" fill="none" xmlns="http://www.w3.org/2000/svg">
<g clip-path="url(#clip0)">
<path d="M18.7923 5.70725L15.1826 2.09076V16.5831H20.0134V8.64365C20.0134 7.54125 19.5738 6.4844 18.7923 5.70725Z" fill="#FFB782"/>
<path d="M2.82115 13.9425L0.0923399 6.85852C-0.181544 6.1474 0.172762 5.34859 0.884281 5.07457L13.7642 0.113351C14.4754 -0.160533 15.2742 0.193774 15.5481 0.905293L18.2769 7.98932C18.5508 8.70044 18.1964 9.49925 17.4849 9.77326L4.60536 14.7345C3.89384 15.0084 3.09543 14.6537 2.82115 13.9425Z" fill="#DE4C3C"/>
<path d="M16.5317 3.45714L1.08841 9.44325L2.11673 12.1126L17.5607 6.1293L16.5317 3.45714Z" fill="#7A4930"/>
<path d="M0.000335693 8.99219V1.40094C0.000335693 0.638714 0.618359 0.0206909 1.38059 0.0206909H15.1828C15.9451 0.0206909 16.5631 0.638714 16.5631 1.40094V8.99219C16.5631 9.75442 15.9451 10.3724 15.1828 10.3724H1.38059C0.618359 10.3724 0.000335693 9.75442 0.000335693 8.99219Z" fill="#4398D1"/>
<path d="M15.1827 0.0203857H13.7162L3.36441 10.3721H15.1827C15.9449 10.3721 16.5629 9.75412 16.5629 8.99189V1.40064C16.5629 0.638409 15.9449 0.0203857 15.1827 0.0203857Z" fill="#3E8CC7"/>
<path d="M1.38037 5.54126H2.76063V6.2314H1.38037V5.54126Z" fill="white"/>
<path d="M1.38037 7.61163H2.76063V8.30176H1.38037V7.61163Z" fill="white"/>
<path d="M7.5914 7.61163H8.97165V8.30176H7.5914V7.61163Z" fill="white"/>
<path d="M3.45078 5.54126H4.8309V6.2314H3.45078V5.54126Z" fill="white"/>
<path d="M5.52103 5.54126H6.90127V6.2314H5.52103V5.54126Z" fill="white"/>
<path d="M7.5914 5.54126H8.97165V6.2314H7.5914V5.54126Z" fill="white"/>
<path d="M14.1475 1.40063H14.8376V2.43582H14.1475V1.40063Z" fill="white"/>
<path d="M12.7672 1.40063H13.4574V2.43582H12.7672V1.40063Z" fill="white"/>
<path d="M11.387 1.40063H12.0771V2.43582H11.387V1.40063Z" fill="white"/>
<path d="M10.0068 1.40063H10.6968V2.43582H10.0068V1.40063Z" fill="white"/>
<path d="M13.8024 16.5831H20.0134V20.0336H13.8024V16.5831Z" fill="#88B337"/>
<path d="M12.7896 6.25383C12.2044 5.67067 11.2573 5.67239 10.6741 6.25766C10.1102 6.82352 10.0907 7.73273 10.6296 8.32249L13.4573 11.4073C12.6074 12.8948 12.6437 14.7291 13.5515 16.1818L13.8024 16.5831H18.2881V11.7524L12.7896 6.25383Z" fill="#FFB782"/>
<path d="M14.8376 17.6183H15.5277V18.3085H14.8376V17.6183Z" fill="#6B962A"/>
<path d="M1.38037 3.60901V1.95276C1.38037 1.64771 1.62745 1.40063 1.9325 1.40063H3.58875C3.8938 1.40063 4.14075 1.64771 4.14075 1.95276V3.60901C4.14075 3.91406 3.8938 4.16114 3.58875 4.16114H1.9325C1.62745 4.16114 1.38037 3.91406 1.38037 3.60901Z" fill="#FDB62F"/>
<path d="M1.38037 2.43582H2.41556V3.12595H1.38037V2.43582Z" fill="#FD7B2F"/>
<path d="M3.10571 2.43582H4.14077V3.12595H3.10571V2.43582Z" fill="#FD7B2F"/>
<path d="M17.943 11.7524C17.8516 11.7524 17.7637 11.7161 17.6991 11.6512L16.3189 10.271C16.1864 10.134 16.1902 9.91563 16.3276 9.78304C16.4615 9.65402 16.6733 9.65402 16.8068 9.78304L18.1871 11.1633C18.3216 11.2983 18.3216 11.5167 18.1871 11.6512C18.1221 11.7161 18.0345 11.7524 17.943 11.7524Z" fill="#F2A46F"/>
</g>
<defs>
<clipPath id="clip0">
<rect width="20" height="20" fill="white"/>
</clipPath>
</defs>
</svg>
