<svg width="20" height="20" viewBox="0 0 20 20" fill="none" xmlns="http://www.w3.org/2000/svg">
<path d="M9.1 0.158166L1.32222 3.00974C0.522222 3.30315 0 3.96332 0 4.68768V8.99713C0 14.086 4.26667 18.8447 10 20C15.7333 18.8447 20 14.086 20 8.99713V4.68768C20 3.96332 19.4778 3.30315 18.6778 3.00974L10.9 0.158166C10.3333 -0.0527221 9.66667 -0.0527221 9.1 0.158166ZM6.98889 13.8476L4.11111 11.4728C4.00824 11.3879 3.92664 11.2871 3.87097 11.1762C3.8153 11.0653 3.78664 10.9464 3.78664 10.8264C3.78664 10.7063 3.8153 10.5874 3.87097 10.4765C3.92664 10.3656 4.00824 10.2648 4.11111 10.1799C4.21398 10.0951 4.3361 10.0277 4.47051 9.98177C4.60491 9.93583 4.74897 9.91219 4.89444 9.91219C5.03992 9.91219 5.18398 9.93583 5.31838 9.98177C5.45279 10.0277 5.57491 10.0951 5.67778 10.1799L7.77778 11.9037L14.3111 6.51232C14.414 6.42743 14.5361 6.36009 14.6705 6.31415C14.8049 6.26821 14.949 6.24457 15.0944 6.24457C15.2399 6.24457 15.384 6.26821 15.5184 6.31415C15.6528 6.36009 15.7749 6.42743 15.8778 6.51232C15.9806 6.59721 16.0622 6.69799 16.1179 6.8089C16.1736 6.91981 16.2022 7.03869 16.2022 7.15874C16.2022 7.27879 16.1736 7.39767 16.1179 7.50858C16.0622 7.61949 15.9806 7.72027 15.8778 7.80516L12.2167 10.8264L8.55556 13.8476C8.45276 13.9326 8.33066 14 8.19625 14.046C8.06183 14.092 7.91774 14.1157 7.77222 14.1157C7.6267 14.1157 7.48261 14.092 7.34819 14.046C7.21378 14 7.09168 13.9326 6.98889 13.8476Z" fill="#037B58"/>
</svg>
